<svg version="1.1" id="Layer_1" xmlns="http://www.w3.org/2000/svg" xmlns:xlink="http://www.w3.org/1999/xlink" x="0px" y="0px"
	 width="100%" viewBox="0 0 319 56" enable-background="new 0 0 319 56" xml:space="preserve">
<path fill="#010202" opacity="1.000000" stroke="none" 
	d="
M320.000000,9.000000 
	C320.000000,24.916203 320.000000,40.832405 320.000000,57.000000 
	C308.313629,57.000000 296.625488,57.000000 284.301758,56.656654 
	C288.296082,52.616768 294.408966,49.948277 293.721924,41.101074 
	C289.313965,42.113834 284.985901,42.176823 281.794952,44.113445 
	C278.832855,45.911205 276.543457,48.033451 272.963715,46.471088 
	C269.410461,44.920273 267.417145,42.283508 267.355865,37.695427 
	C276.712128,37.695427 285.763428,37.695427 294.993958,37.695427 
	C294.993958,35.489994 295.014801,33.832184 294.990784,32.175022 
	C294.720947,13.571345 276.626831,9.036323 264.868683,15.035567 
	C257.825806,18.628986 256.453735,25.421192 255.129791,32.203682 
	C253.367294,41.232815 258.362518,50.956669 266.644043,55.072083 
	C267.262604,55.379486 267.555634,56.342018 268.000000,56.999996 
	C178.999985,57.000000 89.999977,57.000000 1.002331,57.000000 
	C1.002331,38.273060 1.002331,19.636530 1.003497,1.000000 
	C2.003108,1.000000 3.001554,1.000000 4.783326,1.275207 
	C4.621800,2.708009 3.676948,3.865604 2.552729,5.283303 
	C2.368341,5.959564 2.363321,6.375720 2.531231,7.177364 
	C2.629659,17.436138 2.555155,27.309423 2.390711,37.495087 
	C2.454748,38.199188 2.608725,38.590912 2.875702,39.355659 
	C5.450316,50.238403 9.810486,53.786041 22.219995,55.408836 
	C23.276257,55.479443 24.128246,55.351173 25.376522,55.118462 
	C34.226784,54.432575 40.009945,50.487534 42.311943,41.908241 
	C42.671303,41.544079 42.638847,41.279976 42.324944,40.600906 
	C42.147678,38.443298 41.994930,36.720482 41.942642,34.710960 
	C42.165913,34.263199 42.288723,34.102150 42.589188,33.666702 
	C42.773975,31.675497 42.781116,29.958681 42.644409,27.778246 
	C42.462852,19.859846 42.425144,12.405069 42.484001,4.824889 
	C42.627609,4.348025 42.469990,4.117275 41.806999,3.731250 
	C41.337536,2.636842 41.168770,1.818421 41.000000,1.000000 
	C46.022091,1.000000 51.044186,1.000000 56.944969,1.211910 
	C54.487843,5.281362 51.152023,9.138904 47.518990,13.060637 
	C47.402348,14.743054 47.582916,16.361280 47.888668,18.324434 
	C49.319775,23.688276 52.650429,26.974630 57.250626,28.949848 
	C60.716789,30.438141 64.307167,31.664267 67.904213,32.813122 
	C71.599808,33.993450 74.262573,36.194344 73.802902,40.210320 
	C73.367516,44.014088 70.905251,46.373554 66.370445,46.162125 
	C65.374840,46.256775 64.721565,46.411209 63.674469,46.669510 
	C62.485706,46.662090 61.690769,46.550800 60.686710,46.326195 
	C60.167866,46.111492 59.852646,46.089771 59.175323,46.177170 
	C57.223770,45.370934 55.670162,43.960541 54.023594,43.842052 
	C51.865765,43.686775 49.634563,44.551067 47.434921,44.976818 
	C47.905807,47.034527 47.703697,50.025566 48.989697,50.952862 
	C51.553444,52.801514 54.852657,54.206043 57.992321,54.578667 
	C70.389832,56.050030 79.179939,54.346180 82.432976,43.728722 
	C82.649094,43.065414 82.681122,42.654400 82.577492,41.989731 
	C82.577019,40.999126 82.712189,40.262169 82.873581,39.295837 
	C82.911873,38.753761 82.849548,38.456711 82.538223,37.831848 
	C82.360970,36.978764 82.358284,36.469135 82.462418,35.848694 
	C82.666512,35.405716 82.546738,35.164303 82.070007,34.686825 
	C79.894341,29.366302 75.857498,26.727167 71.002785,25.018528 
	C67.735458,23.868576 64.161552,23.152952 61.348530,21.297434 
	C59.366013,19.989725 57.225620,16.983238 57.413731,14.943460 
	C57.561054,13.345966 61.171749,12.067871 63.625038,10.751083 
	C64.992439,10.679372 65.978477,10.504444 67.329483,10.268145 
	C69.540993,10.908895 71.595024,11.303789 73.188881,12.380117 
	C76.085243,14.336029 78.931747,14.998310 80.977554,11.831890 
	C83.205566,8.383437 80.199364,6.483457 77.859489,4.647049 
	C76.266670,3.396952 74.621666,2.213339 73.000000,0.999999 
	C78.688042,1.000000 84.376083,1.000000 90.540268,1.222042 
	C91.016403,1.444084 90.947212,1.883050 90.587219,1.993886 
	C89.162971,3.619446 87.199356,5.119540 87.174446,6.651167 
	C86.941399,20.979033 86.889435,35.316002 87.240059,49.639202 
	C87.282639,51.378723 89.920044,54.419621 91.510849,54.526062 
	C99.473907,55.058872 107.498459,55.021454 115.477013,54.654552 
	C116.924271,54.587997 118.258041,52.053589 119.644203,50.658478 
	C118.102707,49.212597 116.780350,47.066528 114.964226,46.498127 
	C112.695992,45.788235 110.021423,46.391087 107.522163,46.402519 
	C95.179649,46.458984 95.177155,46.455933 96.050278,33.977039 
	C96.071213,33.677883 96.313980,33.394253 96.692680,32.603500 
	C98.911263,32.603500 101.373436,32.573700 103.834587,32.610977 
	C106.977211,32.658569 109.786491,31.980547 109.631905,28.153904 
	C109.491920,24.688801 106.807266,24.221010 103.876259,24.090395 
	C101.303604,23.975752 98.753113,23.363884 96.416306,22.698030 
	C96.485657,20.623236 96.331528,18.822041 96.089233,16.587185 
	C96.073112,14.569793 96.145157,12.986060 96.208542,11.592633 
	C96.941978,11.296443 97.238182,11.075400 97.537422,11.071204 
	C101.985909,11.008831 106.434822,10.939266 110.883583,10.942261 
	C119.846642,10.948294 120.859863,9.476717 117.306900,1.539484 
	C117.278404,1.475831 117.757767,1.184845 118.000000,1.000001 
	C120.370560,1.000000 122.741112,1.000000 125.960724,1.241710 
	C125.985695,3.734221 124.488228,5.973095 124.448112,8.237782 
	C124.209625,21.701834 124.200203,35.173557 124.411499,48.638027 
	C124.442795,50.632359 125.573814,53.578495 127.064789,54.307487 
	C128.546875,55.032131 131.124313,53.516476 133.352570,52.912552 
	C133.717255,52.592667 133.718307,52.335247 133.426025,51.600937 
	C133.427124,45.394222 133.489090,39.656178 133.667450,33.809647 
	C133.913849,33.524780 133.984207,33.327152 134.363846,32.868149 
	C138.405502,31.758558 140.534607,33.223919 142.044266,36.683006 
	C144.296478,41.843536 146.954987,46.832546 149.570847,51.826328 
	C151.080154,54.707611 153.596527,56.000233 156.646515,54.511238 
	C160.081894,52.834114 158.762985,50.211731 157.434250,47.750153 
	C154.522446,42.355793 151.630219,36.950863 148.708298,31.509859 
	C149.259644,31.179317 149.655243,30.857395 150.107742,30.683632 
	C156.423660,28.258249 160.523575,23.867384 160.655365,16.974943 
	C160.786560,10.113403 157.007034,5.490708 150.724121,2.825498 
	C150.300797,2.645926 150.233109,1.628008 150.000000,0.999998 
	C155.688034,1.000000 161.376083,1.000000 167.539917,1.221257 
	C168.015732,1.442514 167.958862,1.881640 167.609039,1.982805 
	C166.233307,3.902400 163.923447,6.509913 164.453369,7.372182 
	C165.501434,9.077562 168.053772,10.635139 170.101547,10.800496 
	C175.726852,11.254743 181.412842,10.957253 187.407288,10.957253 
	C186.664032,12.515172 186.312424,13.252175 185.675354,14.168385 
	C179.097656,23.918449 172.631317,33.382160 166.630219,43.132217 
	C165.043060,45.710896 163.639008,49.615093 164.510666,52.074181 
	C165.106323,53.754597 169.760406,54.574852 172.660217,54.743214 
	C179.295364,55.128441 185.974335,55.045921 192.619736,54.771408 
	C194.344955,54.700134 196.793335,53.613110 197.466583,52.269573 
	C198.038361,51.128510 196.531021,48.945606 195.628906,46.947670 
	C189.519119,46.709133 183.724045,46.746613 177.677185,46.680923 
	C177.084763,46.673954 176.744125,46.770153 176.195206,46.741684 
	C175.663605,46.583363 175.342926,46.600075 175.004028,46.274155 
	C181.402725,35.625893 187.822281,25.370619 194.511810,14.938530 
	C195.901550,13.169379 197.021317,11.577043 198.363770,9.758230 
	C198.458527,8.361367 198.330627,7.190981 198.040649,5.725120 
	C196.598358,4.248251 195.318192,3.066858 194.011292,1.664837 
	C193.984589,1.444210 194.000000,1.000000 194.000000,1.000000 
	C203.020889,1.000000 212.041794,1.000000 221.527557,1.203642 
	C221.992432,1.407283 221.994843,1.814630 221.689682,2.001633 
	C220.494598,3.805341 219.604675,5.422046 218.510513,7.321823 
	C218.458939,9.391866 218.611603,11.178836 218.870895,13.302647 
	C218.912155,14.101210 218.846786,14.562933 218.547180,15.356707 
	C218.451874,20.116163 218.590805,24.543570 218.815903,29.347765 
	C218.851349,30.492363 218.800629,31.260172 218.536407,32.322960 
	C218.470001,34.734428 218.617081,36.850918 218.871460,39.423100 
	C218.985107,43.021862 218.750580,46.191410 219.092133,49.297615 
	C219.283142,51.034721 220.126999,53.800087 221.214188,54.090618 
	C223.017059,54.572388 225.253479,53.431763 227.426300,52.913269 
	C227.766312,52.649593 227.807785,52.412376 227.566162,51.675446 
	C227.535416,46.747520 227.608261,42.284451 227.790680,37.524216 
	C227.841507,35.550701 227.782761,33.874340 227.590240,31.790247 
	C227.576706,30.263157 227.696945,29.143803 227.987366,28.025337 
	C228.384293,28.018169 228.611069,28.010681 229.052567,28.284473 
	C233.060791,36.132996 236.658432,43.810486 240.790009,51.189007 
	C241.782608,52.961651 244.547958,53.741650 246.498032,54.978157 
	C247.565186,53.007507 249.523178,51.051941 249.556854,49.063789 
	C249.799301,34.748959 249.651627,20.427523 249.756256,5.823770 
	C249.557800,5.077173 249.230759,4.614989 248.674438,3.968805 
	C247.954987,3.212085 247.464798,2.639363 246.985748,1.800095 
	C246.997925,1.355700 246.998962,1.177850 247.000000,1.000000 
	C250.030594,1.000000 253.061203,1.000000 256.720642,1.378832 
	C254.494339,7.709486 255.844696,9.889671 262.417664,9.943586 
	C272.631714,10.027368 282.845764,10.112396 293.255371,10.397707 
	C294.281250,10.462481 295.111542,10.326446 296.290405,10.094463 
	C297.104706,10.090819 297.570465,10.183121 298.096191,10.406122 
	C298.253265,10.703359 298.369568,10.855196 298.631653,11.003256 
	C298.758270,11.014178 299.012390,11.013313 298.941071,11.368616 
	C298.780823,12.197351 298.691895,12.670784 298.409058,13.488391 
	C298.320862,21.164240 298.426575,28.495914 298.623779,36.296051 
	C298.644379,41.230156 298.573486,45.695789 298.359863,50.386971 
	C298.425934,51.413563 298.634766,52.214615 298.938843,52.978729 
	C299.034119,52.941792 299.225555,52.870338 299.355316,53.198689 
	C302.687134,56.040405 305.238861,55.406097 307.443298,51.605400 
	C307.790222,37.581947 307.897736,23.885324 308.273010,10.122358 
	C308.717773,10.105760 308.894775,10.155503 309.297485,10.414463 
	C310.661530,10.481332 311.799835,10.338984 313.285828,10.086298 
	C314.111694,9.891204 314.589905,9.806448 315.380676,9.781179 
	C316.267792,9.609222 316.842346,9.377779 317.776001,9.047949 
	C318.756714,8.966376 319.378357,8.983189 320.000000,9.000000 
M207.791412,45.093678 
	C206.539429,47.130329 204.734680,49.055008 204.289032,51.254993 
	C204.092041,52.227489 206.460876,54.477112 207.997208,54.880127 
	C210.881104,55.636635 213.884064,54.758766 214.338715,51.231686 
	C214.854874,47.227337 212.589783,45.149639 207.791412,45.093678 
z"/>
<path fill="#C8F4F5" opacity="1.000000" stroke="none" 
	d="
M133.221420,52.983227 
	C131.124313,53.516476 128.546875,55.032131 127.064789,54.307487 
	C125.573814,53.578495 124.442795,50.632359 124.411499,48.638027 
	C124.200203,35.173557 124.209625,21.701834 124.448112,8.237782 
	C124.488228,5.973095 125.985695,3.734221 126.404892,1.241710 
	C133.687576,1.000000 141.375168,1.000000 149.531372,0.999998 
	C150.233109,1.628008 150.300797,2.645926 150.724121,2.825498 
	C157.007034,5.490708 160.786560,10.113403 160.655365,16.974943 
	C160.523575,23.867384 156.423660,28.258249 150.107742,30.683632 
	C149.655243,30.857395 149.259644,31.179317 148.708298,31.509859 
	C151.630219,36.950863 154.522446,42.355793 157.434250,47.750153 
	C158.762985,50.211731 160.081894,52.834114 156.646515,54.511238 
	C153.596527,56.000233 151.080154,54.707611 149.570847,51.826328 
	C146.954987,46.832546 144.296478,41.843536 142.044266,36.683006 
	C140.534607,33.223919 138.405502,31.758558 134.137604,32.870686 
	C133.269760,33.384529 133.272629,33.652786 133.551056,33.918133 
	C133.489090,39.656178 133.427124,45.394222 133.298645,51.811546 
	C133.232132,52.490822 133.221420,52.983227 133.221420,52.983227 
M139.933151,23.398518 
	C142.232117,23.138622 145.109451,23.635723 146.686447,22.430857 
	C148.745499,20.857664 150.745911,18.039984 151.007965,15.570588 
	C151.355301,12.297508 148.269333,10.927715 145.166473,10.832738 
	C141.269531,10.713453 137.366150,10.804010 133.695114,10.804010 
	C133.695114,15.550660 133.695114,19.427229 133.695114,23.417593 
	C135.782532,23.417593 137.432632,23.417593 139.933151,23.398518 
z"/>
<path fill="#3A739B" opacity="1.000000" stroke="none" 
	d="
M268.466858,56.999996 
	C267.555634,56.342018 267.262604,55.379486 266.644043,55.072083 
	C258.362518,50.956669 253.367294,41.232815 255.129791,32.203682 
	C256.453735,25.421192 257.825806,18.628986 264.868683,15.035567 
	C276.626831,9.036323 294.720947,13.571345 294.990784,32.175022 
	C295.014801,33.832184 294.993958,35.489994 294.993958,37.695427 
	C285.763428,37.695427 276.712128,37.695427 267.355865,37.695427 
	C267.417145,42.283508 269.410461,44.920273 272.963715,46.471088 
	C276.543457,48.033451 278.832855,45.911205 281.794952,44.113445 
	C284.985901,42.176823 289.313965,42.113834 293.721924,41.101074 
	C294.408966,49.948277 288.296082,52.616768 283.833069,56.656654 
	C278.977905,57.000000 273.955811,57.000000 268.466858,56.999996 
M280.512390,25.013525 
	C278.166321,22.541567 275.223969,21.301004 272.264648,23.170364 
	C270.250061,24.442921 268.966248,26.872339 266.547607,29.743832 
	C273.153076,29.743832 277.879852,29.743832 283.213074,29.743832 
	C282.335876,28.056215 281.688568,26.810965 280.512390,25.013525 
z"/>
<path fill="#CDFAFB" opacity="1.000000" stroke="none" 
	d="
M227.681107,37.821377 
	C227.608261,42.284451 227.535416,46.747520 227.405304,51.853451 
	C227.348022,52.496307 227.307251,52.974590 227.307251,52.974590 
	C225.253479,53.431763 223.017059,54.572388 221.214188,54.090618 
	C220.126999,53.800087 219.283142,51.034721 219.092133,49.297615 
	C218.750580,46.191410 218.985107,43.021862 218.927917,38.992058 
	C218.834671,36.079540 218.792282,34.053761 218.749893,32.027981 
	C218.800629,31.260172 218.851349,30.492363 218.900269,28.892212 
	C218.859436,23.714798 218.820435,19.369726 218.781418,15.024656 
	C218.846786,14.562933 218.912155,14.101210 218.933136,12.882397 
	C218.830765,10.429790 218.772751,8.734271 218.714752,7.038752 
	C219.604675,5.422046 220.494598,3.805341 222.042557,2.039815 
	C223.133728,1.593995 223.566864,1.296997 224.000000,0.999999 
	C224.444443,1.000000 224.888901,1.000000 225.301697,1.244134 
	C230.326340,11.567567 235.382614,21.646866 240.995270,32.835232 
	C241.165558,30.348694 241.242950,29.218721 241.535614,27.819061 
	C241.602966,26.004101 241.455032,24.458828 241.269104,22.464153 
	C241.266525,18.706718 241.301971,15.398685 241.567230,11.752592 
	C241.764206,9.169084 241.731369,6.923634 241.796692,4.322542 
	C242.263229,2.977932 242.631607,1.988966 243.000000,1.000000 
	C243.444443,1.000000 243.888901,1.000000 244.626648,1.348310 
	C245.604828,1.819961 246.289719,1.943302 246.974594,2.066642 
	C247.464798,2.639363 247.954987,3.212085 248.668640,4.246551 
	C249.137283,5.174923 249.382477,5.641551 249.627670,6.108180 
	C249.651627,20.427523 249.799301,34.748959 249.556854,49.063789 
	C249.523178,51.051941 247.565186,53.007507 246.498032,54.978157 
	C244.547958,53.741650 241.782608,52.961651 240.790009,51.189007 
	C236.658432,43.810486 233.060791,36.132996 229.071060,28.033073 
	C228.470779,27.049156 228.066727,26.597349 227.064560,25.476728 
	C227.483353,26.894369 227.650269,27.459408 227.817184,28.024448 
	C227.696945,29.143803 227.576706,30.263157 227.434845,32.169357 
	C227.502502,34.577930 227.591797,36.199654 227.681107,37.821377 
z"/>
<path fill="#C9F4F5" opacity="1.000000" stroke="none" 
	d="
M96.192833,22.971632 
	C98.753113,23.363884 101.303604,23.975752 103.876259,24.090395 
	C106.807266,24.221010 109.491920,24.688801 109.631905,28.153904 
	C109.786491,31.980547 106.977211,32.658569 103.834587,32.610977 
	C101.373436,32.573700 98.911263,32.603500 96.692680,32.603500 
	C96.313980,33.394253 96.071213,33.677883 96.050278,33.977039 
	C95.177155,46.455933 95.179649,46.458984 107.522163,46.402519 
	C110.021423,46.391087 112.695992,45.788235 114.964226,46.498127 
	C116.780350,47.066528 118.102707,49.212597 119.644203,50.658478 
	C118.258041,52.053589 116.924271,54.587997 115.477013,54.654552 
	C107.498459,55.021454 99.473907,55.058872 91.510849,54.526062 
	C89.920044,54.419621 87.282639,51.378723 87.240059,49.639202 
	C86.889435,35.316002 86.941399,20.979033 87.174446,6.651167 
	C87.199356,5.119540 89.162971,3.619446 91.050552,2.050770 
	C95.915916,1.664545 99.957954,1.332272 104.000000,1.000000 
	C104.750000,1.000000 105.500000,1.000000 106.714935,1.413903 
	C109.786583,1.551871 112.393295,1.275935 115.000000,1.000000 
	C115.750000,1.000000 116.500000,1.000000 117.625000,1.000001 
	C117.757767,1.184845 117.278404,1.475831 117.306900,1.539484 
	C120.859863,9.476717 119.846642,10.948294 110.883583,10.942261 
	C106.434822,10.939266 101.985909,11.008831 97.537422,11.071204 
	C97.238182,11.075400 96.941978,11.296443 96.208542,11.592633 
	C96.145157,12.986060 96.073112,14.569793 96.016861,17.007736 
	C96.086044,19.565178 96.139442,21.268404 96.192833,22.971632 
z"/>
<path fill="#C9F6F8" opacity="1.000000" stroke="none" 
	d="
M82.355606,35.959503 
	C82.358284,36.469135 82.360970,36.978764 82.414444,38.054604 
	C82.592621,38.922276 82.719994,39.223743 82.847366,39.525215 
	C82.712189,40.262169 82.577019,40.999126 82.372604,42.232719 
	C82.285210,43.146576 82.267044,43.563797 82.248871,43.981014 
	C79.179939,54.346180 70.389832,56.050030 57.992321,54.578667 
	C54.852657,54.206043 51.553444,52.801514 48.989697,50.952862 
	C47.703697,50.025566 47.905807,47.034527 47.434921,44.976818 
	C49.634563,44.551067 51.865765,43.686775 54.023594,43.842052 
	C55.670162,43.960541 57.223770,45.370934 59.361847,46.358028 
	C60.235256,46.486130 60.565544,46.462818 60.895832,46.439510 
	C61.690769,46.550800 62.485706,46.662090 64.013222,46.764278 
	C65.401466,46.577423 66.057121,46.399662 66.712784,46.221905 
	C70.905251,46.373554 73.367516,44.014088 73.802902,40.210320 
	C74.262573,36.194344 71.599808,33.993450 67.904213,32.813122 
	C64.307167,31.664267 60.716789,30.438141 57.250626,28.949848 
	C52.650429,26.974630 49.319775,23.688276 47.920635,17.909496 
	C47.823685,15.765235 47.819946,14.380840 47.816208,12.996446 
	C51.152023,9.138904 54.487843,5.281362 57.411827,1.211910 
	C60.692909,1.000000 64.385818,1.000000 68.716034,1.312365 
	C70.235565,1.416487 71.117783,1.208243 72.000000,1.000000 
	C72.000000,1.000000 72.500000,1.000000 72.750000,0.999999 
	C74.621666,2.213339 76.266670,3.396952 77.859489,4.647049 
	C80.199364,6.483457 83.205566,8.383437 80.977554,11.831890 
	C78.931747,14.998310 76.085243,14.336029 73.188881,12.380117 
	C71.595024,11.303789 69.540993,10.908895 66.954727,10.168505 
	C65.224571,10.302782 64.234123,10.475326 63.243683,10.647869 
	C61.171749,12.067871 57.561054,13.345966 57.413731,14.943460 
	C57.225620,16.983238 59.366013,19.989725 61.348530,21.297434 
	C64.161552,23.152952 67.735458,23.868576 71.002785,25.018528 
	C75.857498,26.727167 79.894341,29.366302 82.031418,34.934837 
	C82.207016,35.659618 82.281311,35.809559 82.355606,35.959503 
z"/>
<path fill="#010202" opacity="1.000000" stroke="none" 
	d="
M8.000000,1.000000 
	C17.020895,1.000000 26.041792,1.000000 35.816792,1.342370 
	C35.718716,3.350348 34.203686,4.988572 34.133545,6.686486 
	C33.881832,12.779522 34.118729,18.892742 34.094795,25.459017 
	C34.011589,29.726526 34.071880,33.534969 33.980324,37.339760 
	C33.866596,42.065731 31.395676,45.000721 26.884731,46.317120 
	C20.672159,48.130096 15.251981,45.859749 11.974670,39.745811 
	C11.943189,39.326744 11.866788,39.168037 11.828265,38.541515 
	C11.774874,27.977707 11.683604,17.881712 11.696394,7.474306 
	C11.707039,4.579396 11.334776,2.210309 7.713925,1.856997 
	C7.651144,1.371521 7.825572,1.185761 8.000000,1.000000 
z"/>
<path fill="#3F7498" opacity="1.000000" stroke="none" 
	d="
M307.203888,51.932232 
	C305.238861,55.406097 302.687134,56.040405 299.594299,52.875664 
	C299.793945,39.217175 299.900116,26.210096 299.933105,13.202834 
	C299.934937,12.473777 299.333191,11.743189 299.012390,11.013313 
	C299.012390,11.013313 298.758270,11.014178 298.677032,10.827034 
	C298.515045,10.356234 298.328552,10.234745 298.036255,10.275423 
	C297.570465,10.183121 297.104706,10.090819 295.932434,10.037860 
	C294.503906,10.117101 293.781860,10.157000 293.059814,10.196898 
	C282.845764,10.112396 272.631714,10.027368 262.417664,9.943586 
	C255.844696,9.889671 254.494339,7.709486 257.174744,1.378832 
	C274.354218,1.000000 291.708466,1.000000 309.534424,1.395812 
	C310.005951,4.457310 310.005676,7.122997 309.776917,9.903830 
	C309.389557,10.081067 309.230682,10.143157 309.071808,10.205248 
	C308.894775,10.155503 308.717773,10.105760 307.931366,10.348053 
	C307.282623,24.404139 307.243256,38.168186 307.203888,51.932232 
z"/>
<path fill="#CCF9FA" opacity="1.000000" stroke="none" 
	d="
M11.592334,7.785719 
	C11.683604,17.881712 11.774874,27.977707 11.698659,38.651344 
	C11.664034,39.488052 11.796892,39.747116 11.929751,40.006176 
	C15.251981,45.859749 20.672159,48.130096 26.884731,46.317120 
	C31.395676,45.000721 33.866596,42.065731 33.980324,37.339760 
	C34.071880,33.534969 34.011589,29.726526 34.447502,25.518372 
	C35.933205,26.803452 36.920338,28.539097 38.066315,30.162617 
	C39.244179,31.831308 40.577110,33.390541 41.842186,34.997669 
	C41.994930,36.720482 42.147678,38.443298 42.201740,40.824566 
	C42.127724,41.651508 42.152390,41.819992 42.177055,41.988472 
	C40.009945,50.487534 34.226784,54.432575 25.008537,55.056942 
	C23.501419,55.136559 22.758570,55.173260 22.015722,55.209961 
	C9.810486,53.786041 5.450316,50.238403 2.922554,39.043743 
	C2.731153,37.966770 2.605902,37.574741 2.480651,37.182709 
	C2.555155,27.309423 2.629659,17.436138 2.712990,6.918633 
	C2.725244,5.857342 2.728670,5.440271 2.732096,5.023200 
	C3.676948,3.865604 4.621800,2.708009 5.283326,1.275207 
	C5.750000,1.000000 6.500000,1.000000 7.625000,1.000000 
	C7.825572,1.185761 7.651144,1.371521 7.679726,2.219791 
	C6.389344,6.582051 7.507855,8.305811 11.592334,7.785719 
z"/>
<path fill="#C9F7F8" opacity="1.000000" stroke="none" 
	d="
M185.960815,13.989178 
	C186.312424,13.252175 186.664032,12.515172 187.407288,10.957253 
	C181.412842,10.957253 175.726852,11.254743 170.101547,10.800496 
	C168.053772,10.635139 165.501434,9.077562 164.453369,7.372182 
	C163.923447,6.509913 166.233307,3.902400 168.007828,2.045214 
	C169.837631,1.670972 170.918823,1.335487 172.000000,1.000000 
	C175.692902,1.000000 179.385818,1.000000 183.469818,1.381877 
	C184.573929,1.509169 185.286972,1.254584 186.000000,1.000000 
	C186.750000,1.000000 187.500000,1.000000 188.687195,1.402073 
	C190.762268,1.831253 192.400146,1.858358 194.038010,1.885464 
	C195.318192,3.066858 196.598358,4.248251 198.006714,6.120759 
	C198.136963,7.869484 198.139023,8.927096 198.141083,9.984707 
	C197.021317,11.577043 195.901550,13.169379 194.224152,14.709234 
	C193.194275,13.222931 192.722015,11.789109 192.261429,10.390738 
	C189.936218,11.718732 187.948517,12.853955 185.960815,13.989178 
z"/>
<path fill="#040606" opacity="1.000000" stroke="none" 
	d="
M241.320343,28.088751 
	C241.242950,29.218721 241.165558,30.348694 240.995270,32.835232 
	C235.382614,21.646866 230.326340,11.567567 225.635040,1.244134 
	C231.354935,1.000000 236.709854,1.000000 242.532394,1.000000 
	C242.631607,1.988966 242.263229,2.977932 241.554794,4.663014 
	C241.255646,7.602972 241.296524,9.846812 241.337418,12.090652 
	C241.301971,15.398685 241.266525,18.706718 241.140991,22.883114 
	C241.140701,25.197233 241.230515,26.642992 241.320343,28.088751 
z"/>
<path fill="#C8FBFC" opacity="1.000000" stroke="none" 
	d="
M41.942642,34.710960 
	C40.577110,33.390541 39.244179,31.831308 38.066315,30.162617 
	C36.920338,28.539097 35.933205,26.803452 34.523621,25.057686 
	C34.118729,18.892742 33.881832,12.779522 34.133545,6.686486 
	C34.203686,4.988572 35.718716,3.350348 36.285446,1.342370 
	C37.388889,1.000000 38.777779,1.000000 40.583336,1.000000 
	C41.168770,1.818421 41.337536,2.636842 41.804512,3.988497 
	C42.197620,4.664584 42.292530,4.807437 42.387440,4.950291 
	C42.425144,12.405069 42.462852,19.859846 42.496914,28.160130 
	C42.466026,30.650789 42.438782,32.295944 42.411537,33.941097 
	C42.288723,34.102150 42.165913,34.263199 41.942642,34.710960 
z"/>
<path fill="#43789D" opacity="1.000000" stroke="none" 
	d="
M310.005402,9.788683 
	C310.005676,7.122997 310.005951,4.457310 310.003113,1.395812 
	C312.041656,1.000000 314.083344,1.000000 316.613770,1.204870 
	C317.401703,1.273157 317.700836,1.136574 318.000000,0.999992 
	C318.666656,1.439883 319.844269,1.816188 319.908356,2.331067 
	C320.140839,4.199096 320.000000,6.113579 320.000000,8.505266 
	C319.378357,8.983189 318.756714,8.966376 317.456604,9.017429 
	C316.208160,9.297428 315.638123,9.509561 315.068115,9.721693 
	C314.589905,9.806448 314.111694,9.891204 312.921997,10.017545 
	C311.475464,9.968982 310.740448,9.878832 310.005402,9.788683 
z"/>
<path fill="#263F45" opacity="1.000000" stroke="none" 
	d="
M103.536819,1.000000 
	C99.957954,1.332272 95.915916,1.664545 91.410538,1.939934 
	C90.947212,1.883050 91.016403,1.444084 91.008202,1.222042 
	C95.024544,1.000000 99.049088,1.000000 103.536819,1.000000 
z"/>
<path fill="#263F45" opacity="1.000000" stroke="none" 
	d="
M114.555832,1.000000 
	C112.393295,1.275935 109.786583,1.551871 107.089935,1.413903 
	C109.370560,1.000000 111.741112,1.000000 114.555832,1.000000 
z"/>
<path fill="#2A4148" opacity="1.000000" stroke="none" 
	d="
M194.011292,1.664837 
	C192.400146,1.858358 190.762268,1.831253 189.062195,1.402073 
	C190.388885,1.000000 191.777786,1.000000 193.583344,1.000000 
	C194.000000,1.000000 193.984589,1.444210 194.011292,1.664837 
z"/>
<path fill="#2A4148" opacity="1.000000" stroke="none" 
	d="
M171.599945,1.000000 
	C170.918823,1.335487 169.837631,1.670972 168.357666,1.944049 
	C167.958862,1.881640 168.015732,1.442514 168.007874,1.221257 
	C169.066620,1.000000 170.133255,1.000000 171.599945,1.000000 
z"/>
<path fill="#010202" opacity="1.000000" stroke="none" 
	d="
M71.625000,1.000000 
	C71.117783,1.208243 70.235565,1.416487 69.176674,1.312365 
	C69.750000,1.000000 70.500000,1.000000 71.625000,1.000000 
z"/>
<path fill="#040606" opacity="1.000000" stroke="none" 
	d="
M223.666656,0.999999 
	C223.566864,1.296997 223.133728,1.593995 222.347717,1.852812 
	C221.994843,1.814630 221.992432,1.407283 221.996216,1.203642 
	C222.444443,1.000000 222.888885,1.000000 223.666656,0.999999 
z"/>
<path fill="#2A4148" opacity="1.000000" stroke="none" 
	d="
M185.666672,1.000000 
	C185.286972,1.254584 184.573929,1.509169 183.930450,1.381877 
	C184.444443,1.000000 184.888901,1.000000 185.666672,1.000000 
z"/>
<path fill="#040606" opacity="1.000000" stroke="none" 
	d="
M246.985748,1.800097 
	C246.289719,1.943302 245.604828,1.819961 244.959976,1.348310 
	C245.444443,1.000000 245.888901,1.000000 246.666672,1.000000 
	C246.998962,1.177850 246.997925,1.355700 246.985748,1.800097 
z"/>
<path fill="#2A5070" opacity="1.000000" stroke="none" 
	d="
M317.750000,0.999995 
	C317.700836,1.136574 317.401703,1.273157 317.051270,1.204870 
	C317.000000,1.000000 317.500000,1.000000 317.750000,0.999995 
z"/>
<path fill="#CFF5F9" opacity="1.000000" stroke="none" 
	d="
M185.675369,14.168385 
	C187.948517,12.853955 189.936218,11.718732 192.261429,10.390738 
	C192.722015,11.789109 193.194275,13.222931 193.954193,14.886049 
	C187.822281,25.370619 181.402725,35.625893 175.216187,46.386192 
	C175.449203,46.891220 175.928314,46.954632 175.928314,46.954632 
	C175.928314,46.954632 176.403503,46.866348 176.403503,46.866352 
	C176.744125,46.770153 177.084763,46.673954 177.754547,47.041771 
	C178.927567,48.198193 179.847061,49.560341 180.603043,49.474949 
	C185.735840,48.895210 190.834167,48.010124 195.943619,47.223679 
	C196.531021,48.945606 198.038361,51.128510 197.466583,52.269573 
	C196.793335,53.613110 194.344955,54.700134 192.619736,54.771408 
	C185.974335,55.045921 179.295364,55.128441 172.660217,54.743214 
	C169.760406,54.574852 165.106323,53.754597 164.510666,52.074181 
	C163.639008,49.615093 165.043060,45.710896 166.630219,43.132217 
	C172.631317,33.382160 179.097656,23.918449 185.675369,14.168385 
z"/>
<path fill="#C6F1F3" opacity="1.000000" stroke="none" 
	d="
M208.179810,45.061222 
	C212.589783,45.149639 214.854874,47.227337 214.338715,51.231686 
	C213.884064,54.758766 210.881104,55.636635 207.997208,54.880127 
	C206.460876,54.477112 204.092041,52.227489 204.289032,51.254993 
	C204.734680,49.055008 206.539429,47.130329 208.179810,45.061222 
z"/>
<path fill="#C0EDEE" opacity="1.000000" stroke="none" 
	d="
M195.628906,46.947670 
	C190.834167,48.010124 185.735840,48.895210 180.603043,49.474949 
	C179.847061,49.560341 178.927567,48.198193 178.006348,47.144939 
	C183.724045,46.746613 189.519119,46.709133 195.628906,46.947670 
z"/>
<path fill="#4D7798" opacity="1.000000" stroke="none" 
	d="
M298.941071,11.368616 
	C299.333191,11.743189 299.934937,12.473777 299.933105,13.202834 
	C299.900116,26.210096 299.793945,39.217175 299.464539,52.547314 
	C299.225555,52.870338 299.034119,52.941792 298.938538,52.616562 
	C298.729492,51.581364 298.616028,50.871395 298.502625,50.161427 
	C298.573486,45.695789 298.644379,41.230156 298.729156,35.853542 
	C298.696350,27.676451 298.649658,20.410334 298.602966,13.144217 
	C298.691895,12.670784 298.780823,12.197351 298.941071,11.368616 
z"/>
<path fill="#030506" opacity="1.000000" stroke="none" 
	d="
M307.443298,51.605400 
	C307.243256,38.168186 307.282623,24.404139 307.663635,10.414397 
	C307.897736,23.885324 307.790222,37.581947 307.443298,51.605400 
z"/>
<path fill="#030506" opacity="1.000000" stroke="none" 
	d="
M298.409058,13.488392 
	C298.649658,20.410334 298.696350,27.676451 298.637665,35.385078 
	C298.426575,28.495914 298.320862,21.164240 298.409058,13.488392 
z"/>
<path fill="#030506" opacity="1.000000" stroke="none" 
	d="
M218.547180,15.356707 
	C218.820435,19.369726 218.859436,23.714798 218.814087,28.515423 
	C218.590805,24.543570 218.451874,20.116163 218.547180,15.356707 
z"/>
<path fill="#030506" opacity="1.000000" stroke="none" 
	d="
M218.536407,32.322960 
	C218.792282,34.053761 218.834671,36.079540 218.820602,38.536362 
	C218.617081,36.850918 218.470001,34.734428 218.536407,32.322960 
z"/>
<path fill="#030506" opacity="1.000000" stroke="none" 
	d="
M47.518990,13.060637 
	C47.819946,14.380840 47.823685,15.765235 47.795452,17.564568 
	C47.582916,16.361280 47.402348,14.743054 47.518990,13.060637 
z"/>
<path fill="#030506" opacity="1.000000" stroke="none" 
	d="
M96.416306,22.698030 
	C96.139442,21.268404 96.086044,19.565178 96.105026,17.441399 
	C96.331528,18.822041 96.485657,20.623236 96.416306,22.698030 
z"/>
<path fill="#030506" opacity="1.000000" stroke="none" 
	d="
M218.510498,7.321824 
	C218.772751,8.734271 218.830765,10.429790 218.826508,12.545557 
	C218.611603,11.178836 218.458939,9.391866 218.510498,7.321824 
z"/>
<path fill="#030506" opacity="1.000000" stroke="none" 
	d="
M227.790680,37.524216 
	C227.591797,36.199654 227.502502,34.577930 227.568604,32.577095 
	C227.782761,33.874340 227.841507,35.550701 227.790680,37.524216 
z"/>
<path fill="#030506" opacity="1.000000" stroke="none" 
	d="
M42.589188,33.666702 
	C42.438782,32.295944 42.466026,30.650789 42.640762,28.623751 
	C42.781116,29.958681 42.773975,31.675497 42.589188,33.666702 
z"/>
<path fill="#030506" opacity="1.000000" stroke="none" 
	d="
M227.987366,28.025337 
	C227.650269,27.459408 227.483353,26.894369 227.064560,25.476728 
	C228.066727,26.597349 228.470779,27.049156 228.856339,27.752365 
	C228.611069,28.010681 228.384293,28.018169 227.987366,28.025337 
z"/>
<path fill="#030506" opacity="1.000000" stroke="none" 
	d="
M309.776917,9.903830 
	C310.740448,9.878832 311.475464,9.968982 312.574341,10.127884 
	C311.799835,10.338984 310.661530,10.481332 309.297485,10.414463 
	C309.230682,10.143157 309.389557,10.081067 309.776917,9.903830 
z"/>
<path fill="#030506" opacity="1.000000" stroke="none" 
	d="
M198.363754,9.758231 
	C198.139023,8.927096 198.136963,7.869484 198.168823,6.416233 
	C198.330627,7.190981 198.458527,8.361367 198.363754,9.758231 
z"/>
<path fill="#030506" opacity="1.000000" stroke="none" 
	d="
M298.359863,50.386971 
	C298.616028,50.871395 298.729492,51.581364 298.843262,52.653496 
	C298.634766,52.214615 298.425934,51.413563 298.359863,50.386971 
z"/>
<path fill="#030506" opacity="1.000000" stroke="none" 
	d="
M22.219995,55.408836 
	C22.758570,55.173260 23.501419,55.136559 24.612251,55.161385 
	C24.128246,55.351173 23.276257,55.479443 22.219995,55.408836 
z"/>
<path fill="#030506" opacity="1.000000" stroke="none" 
	d="
M63.625038,10.751084 
	C64.234123,10.475326 65.224571,10.302782 66.589767,10.229877 
	C65.978477,10.504444 64.992439,10.679372 63.625038,10.751084 
z"/>
<path fill="#030506" opacity="1.000000" stroke="none" 
	d="
M293.255371,10.397708 
	C293.781860,10.157000 294.503906,10.117101 295.583923,10.133806 
	C295.111542,10.326446 294.281250,10.462481 293.255371,10.397708 
z"/>
<path fill="#7F9FA7" opacity="1.000000" stroke="none" 
	d="
M249.756256,5.823768 
	C249.382477,5.641551 249.137283,5.174923 248.897888,4.430550 
	C249.230759,4.614989 249.557800,5.077173 249.756256,5.823768 
z"/>
<path fill="#3F7498" opacity="1.000000" stroke="none" 
	d="
M315.380676,9.781179 
	C315.638123,9.509561 316.208160,9.297428 317.097534,9.115815 
	C316.842346,9.377779 316.267792,9.609222 315.380676,9.781179 
z"/>
<path fill="#030506" opacity="1.000000" stroke="none" 
	d="
M66.370445,46.162125 
	C66.057121,46.399662 65.401466,46.577423 64.407051,46.660408 
	C64.721565,46.411209 65.374840,46.256775 66.370445,46.162125 
z"/>
<path fill="#030506" opacity="1.000000" stroke="none" 
	d="
M60.686710,46.326195 
	C60.565544,46.462818 60.235256,46.486130 59.718445,46.328575 
	C59.852646,46.089771 60.167866,46.111492 60.686710,46.326195 
z"/>
<path fill="#030506" opacity="1.000000" stroke="none" 
	d="
M42.484001,4.824889 
	C42.292530,4.807437 42.197620,4.664584 42.105206,4.264484 
	C42.469990,4.117275 42.627609,4.348025 42.484001,4.824889 
z"/>
<path fill="#030506" opacity="1.000000" stroke="none" 
	d="
M227.426300,52.913269 
	C227.307251,52.974590 227.348022,52.496307 227.508881,52.318306 
	C227.807785,52.412376 227.766312,52.649593 227.426300,52.913269 
z"/>
<path fill="#030506" opacity="1.000000" stroke="none" 
	d="
M133.352570,52.912552 
	C133.221420,52.983227 133.232132,52.490822 133.359512,52.280216 
	C133.718307,52.335247 133.717255,52.592667 133.352570,52.912552 
z"/>
<path fill="#030506" opacity="1.000000" stroke="none" 
	d="
M2.552729,5.283303 
	C2.728670,5.440271 2.725244,5.857342 2.540059,6.533145 
	C2.363321,6.375720 2.368341,5.959564 2.552729,5.283303 
z"/>
<path fill="#C0EDEE" opacity="1.000000" stroke="none" 
	d="
M176.195206,46.741684 
	C176.403503,46.866348 175.928314,46.954632 175.928314,46.954632 
	C175.928314,46.954632 175.449203,46.891220 175.237045,46.779182 
	C175.342926,46.600075 175.663605,46.583363 176.195206,46.741684 
z"/>
<path fill="#030506" opacity="1.000000" stroke="none" 
	d="
M82.462418,35.848694 
	C82.281311,35.809559 82.207016,35.659618 82.171318,35.261658 
	C82.546738,35.164303 82.666512,35.405716 82.462418,35.848694 
z"/>
<path fill="#030506" opacity="1.000000" stroke="none" 
	d="
M298.096191,10.406122 
	C298.328552,10.234745 298.515045,10.356234 298.550415,10.816111 
	C298.369568,10.855196 298.253265,10.703359 298.096191,10.406122 
z"/>
<path fill="#030506" opacity="1.000000" stroke="none" 
	d="
M82.432968,43.728722 
	C82.267044,43.563797 82.285210,43.146576 82.508255,42.486374 
	C82.681122,42.654400 82.649094,43.065414 82.432968,43.728722 
z"/>
<path fill="#030506" opacity="1.000000" stroke="none" 
	d="
M133.667450,33.809647 
	C133.272629,33.652786 133.269760,33.384529 133.768677,33.110817 
	C133.984207,33.327152 133.913849,33.524780 133.667450,33.809647 
z"/>
<path fill="#030506" opacity="1.000000" stroke="none" 
	d="
M42.311943,41.908241 
	C42.152390,41.819992 42.127724,41.651508 42.226265,41.259361 
	C42.638847,41.279976 42.671303,41.544079 42.311943,41.908241 
z"/>
<path fill="#030506" opacity="1.000000" stroke="none" 
	d="
M82.873581,39.295837 
	C82.719994,39.223743 82.592621,38.922276 82.589020,38.398052 
	C82.849548,38.456711 82.911873,38.753761 82.873581,39.295837 
z"/>
<path fill="#030506" opacity="1.000000" stroke="none" 
	d="
M2.390711,37.495087 
	C2.605902,37.574741 2.731153,37.966770 2.809553,38.670719 
	C2.608725,38.590912 2.454748,38.199188 2.390711,37.495087 
z"/>
<path fill="#070A0B" opacity="1.000000" stroke="none" 
	d="
M139.507935,23.408054 
	C137.432632,23.417593 135.782532,23.417593 133.695114,23.417593 
	C133.695114,19.427229 133.695114,15.550660 133.695114,10.804010 
	C137.366150,10.804010 141.269531,10.713453 145.166473,10.832738 
	C148.269333,10.927715 151.355301,12.297508 151.007965,15.570588 
	C150.745911,18.039984 148.745499,20.857664 146.686447,22.430857 
	C145.109451,23.635723 142.232117,23.138622 139.507935,23.408054 
z"/>
<path fill="#000000" opacity="1.000000" stroke="none" 
	d="
M280.776855,25.289619 
	C281.688568,26.810965 282.335876,28.056215 283.213074,29.743832 
	C277.879852,29.743832 273.153076,29.743832 266.547607,29.743832 
	C268.966248,26.872339 270.250061,24.442921 272.264648,23.170364 
	C275.223969,21.301004 278.166321,22.541567 280.776855,25.289619 
z"/>
<path fill="#81AEB3" opacity="1.000000" stroke="none" 
	d="
M241.567230,11.752592 
	C241.296524,9.846812 241.255646,7.602972 241.456635,5.018658 
	C241.731369,6.923634 241.764206,9.169084 241.567230,11.752592 
z"/>
<path fill="#81AEB3" opacity="1.000000" stroke="none" 
	d="
M241.535614,27.819061 
	C241.230515,26.642992 241.140701,25.197233 241.179001,23.332516 
	C241.455032,24.458828 241.602966,26.004101 241.535614,27.819061 
z"/>
<path fill="#B8E8EB" opacity="1.000000" stroke="none" 
	d="
M11.696394,7.474306 
	C7.507855,8.305811 6.389344,6.582051 7.916935,2.519506 
	C11.334776,2.210309 11.707039,4.579396 11.696394,7.474306 
z"/>
<path fill="#B8E8EB" opacity="1.000000" stroke="none" 
	d="
M11.974670,39.745811 
	C11.796892,39.747116 11.664034,39.488052 11.660781,39.119164 
	C11.866788,39.168037 11.943189,39.326744 11.974670,39.745811 
z"/>
</svg>