<?xml version="1.0" encoding="UTF-8"?>
<svg width="454.009356px" height="382.245652px" viewBox="0 0 454.009356 382.245652" version="1.1" xmlns="http://www.w3.org/2000/svg" xmlns:xlink="http://www.w3.org/1999/xlink">
    <title>hero-source</title>
    <g id="Page-1" stroke="none" stroke-width="1" fill="none" fill-rule="evenodd">
        <g id="hero-source" transform="translate(0, 0)">
            <path d="M13.6501202,364.399877 C12.7187202,364.255877 11.8537202,363.829877 11.1721202,363.178877 C10.4904202,362.527877 10.0250202,361.683877 9.83862018,360.759877 C8.84022018,355.369877 19.6717202,331.927877 19.6717202,331.927877 C19.6717202,331.927877 13.8764202,325.851877 16.9132202,314.434877 C18.1586202,309.754877 27.5342202,289.851877 34.0238202,283.097877 C38.3762202,278.565877 46.2437202,274.158877 52.7437202,275.700877 C53.0037202,275.759877 51.1473202,277.457877 64.1551202,262.086877 C78.4549202,245.186877 113.50792,216.430877 143.08092,202.957877 C174.11392,188.818877 226.43392,177.217877 272.82092,185.446877 C334.64892,196.431877 374.80292,232.152877 400.58992,259.582877 C410.90692,259.439877 419.79092,267.580877 426.58992,275.336877 C437.31792,287.556877 447.11392,301.965877 447.78992,318.212877 C448.27092,322.893877 447.07292,327.593877 444.40992,331.472877 C447.49092,338.892877 450.11792,346.492877 452.27492,354.230877 C452.47492,355.003877 452.51792,355.809877 452.39892,356.599877 C452.28092,357.389877 452.00392,358.147877 451.58592,358.828877 C451.16892,359.509877 450.61792,360.098877 449.96692,360.561877 C449.31592,361.024877 448.57792,361.351877 447.79792,361.523877 C414.56192,368.889877 242.48092,402.486877 13.6501202,364.399877 Z" id="Path" fill="#FFFFFF" fill-rule="nonzero"></path>
            <path d="M426.64192,291.365877 C425.36792,292.371877 443.26892,316.652877 433.18392,317.687877 C433.03492,314.290877 432.14792,310.966877 430.58392,307.947877 C427.69492,301.939877 415.24392,285.827877 412.26892,282.535877 C409.64092,279.334877 406.06792,277.046877 402.06192,275.999877 C403.79292,266.223877 417.40192,280.624877 418.47492,279.119877 C418.93292,278.435877 409.46392,267.359877 403.05192,269.709877 C399.41192,270.970877 397.07192,275.869877 399.08192,281.518877 C402.29292,290.590877 422.98092,315.672877 424.30192,316.980877 C427.71292,320.180877 431.34492,322.383877 435.71292,320.815877 C448.34192,314.346877 427.64792,290.556877 426.64192,291.365877 Z M418.06192,303.426877 C414.16192,298.442877 402.54792,284.290877 401.96492,277.972877 C408.56892,280.151877 412.74492,287.675877 419.52292,296.591877 C424.20292,302.937877 430.03692,309.684877 431.03592,317.344877 C426.40492,315.623877 421.70692,307.885877 418.07492,303.426877 L418.06192,303.426877 Z" id="Shape" fill="#000000" fill-rule="nonzero"></path>
            <path d="M365.92392,335.422877 C364.55392,310.722877 324.52692,297.615877 324.02792,301.396877 C323.71292,302.714877 338.35392,305.717877 351.54092,318.901877 C364.11992,331.657877 361.30092,343.042877 355.44092,345.021877 C356.78992,337.632877 352.09692,330.721877 346.27892,326.020877 C338.14592,319.419877 327.18192,316.814877 316.97392,314.320877 C302.80092,310.984877 281.38992,307.220877 272.62092,319.161877 C267.05392,295.995877 311.95092,302.469877 312.32492,300.857877 C313.23792,297.847877 269.27392,290.658877 266.70592,313.447877 C266.28592,317.211877 266.98892,321.015877 268.72492,324.381877 C270.46092,327.748877 273.15292,330.526877 276.46292,332.367877 C284.92092,337.567877 295.07692,336.329877 304.41092,337.525877 C328.40592,340.367877 336.80692,350.242877 350.57892,351.095877 C360.87792,351.591877 366.28592,345.190877 365.92392,335.422877 Z M318.96792,334.715877 C296.74092,328.651877 282.33192,334.530877 274.40392,323.069877 C279.80392,311.299877 304.00992,315.987877 315.90292,318.816877 C328.46092,321.829877 346.18192,325.942877 351.30992,338.498877 C352.28392,340.716877 352.54192,343.184877 352.04792,345.557877 C342.67992,345.723877 334.41192,338.924877 318.96792,334.715877 L318.96792,334.715877 Z" id="Shape" fill="#000000" fill-rule="nonzero"></path>
            <path d="M258.16692,242.446877 C252.22392,231.739877 234.11992,233.236877 234.47092,235.030877 C234.53292,235.732877 238.00192,235.636877 243.01692,237.165877 C248.78892,238.985877 256.22492,243.059877 254.66492,248.943877 C253.55492,253.472877 254.11892,249.772877 244.37892,245.779877 C230.79392,240.129877 209.51892,242.238877 203.18792,251.806877 C200.22892,246.169877 204.64892,241.406877 210.30592,238.600877 C214.93392,236.473877 222.26592,234.042877 215.78692,234.347877 C192.77992,235.696877 193.34092,258.285877 208.94392,261.264877 C214.80692,262.385877 220.97692,260.622877 230.43792,260.625877 C237.35892,260.505877 247.33792,263.175877 254.14192,257.531877 C259.60492,253.147877 260.71792,246.889877 258.16692,242.446877 Z M230.43292,255.994877 C217.48792,255.994877 210.15292,259.192877 204.81492,253.974877 C210.00192,246.494877 233.67492,241.507877 252.02592,253.236877 C246.61792,258.399877 238.72992,255.940877 230.43292,255.994877 Z" id="Shape" fill="#000000" fill-rule="nonzero"></path>
            <path d="M36.4859202,304.796877 C31.1013202,314.767877 27.3547202,323.238877 26.2237202,322.879877 C25.1837202,322.544877 27.2637202,313.173877 32.8407202,302.825877 C38.4177202,292.477877 45.1647202,285.621877 46.0201202,286.323877 C46.9327202,287.085877 41.8731202,294.825877 36.4859202,304.796877 Z" id="Path" fill="#000000" fill-rule="nonzero"></path>
            <path d="M167.25292,310.485877 C154.56192,294.261877 124.63892,309.827877 126.01392,311.985877 C126.71092,313.226877 145.44692,305.056877 157.35692,309.523877 C164.14892,312.667877 164.31792,316.122877 161.43192,319.923877 C160.61792,320.997877 157.74192,317.958877 147.13192,318.080877 C128.54892,318.231877 108.65192,328.841877 99.1749202,343.794877 C94.2939202,341.579877 93.5219202,338.030877 95.7429202,333.134877 C100.20892,323.285877 112.85292,316.515877 112.23392,315.269877 C111.31392,313.101877 87.0689202,325.087877 89.3539202,340.110877 C91.2079202,348.796877 100.71392,351.472877 110.36992,350.083877 C120.49692,348.531877 179.23592,329.312877 167.25292,310.485877 Z M102.49692,344.725877 C115.17992,329.333877 138.81892,319.187877 158.48092,322.944877 C148.79292,331.381877 114.61892,346.469877 102.49692,344.725877 Z" id="Shape" fill="#000000" fill-rule="nonzero"></path>
            <path d="M322.54592,274.821877 C318.48192,270.609877 319.40192,266.426877 322.94592,265.653877 C328.08792,265.399877 333.17192,266.828877 337.42792,269.725877 C341.84792,272.585877 350.85692,279.134877 336.16992,271.984877 C327.82392,267.921877 322.63692,269.252877 323.46892,269.218877 C323.46892,269.218877 323.45092,269.182877 323.48692,269.387877 C323.32592,274.020877 348.76892,286.947877 345.16292,278.250877 C343.49392,274.753877 345.07492,275.988877 346.36192,277.486877 C349.23992,280.830877 346.14892,289.498877 328.02092,278.669877 C326.01692,277.662877 324.17192,276.366877 322.54592,274.821877 L322.54592,274.821877 Z" id="Path" fill="#000000" fill-rule="nonzero"></path>
            <path d="M128.91092,264.824877 C122.33292,265.326877 111.04592,269.613877 114.64992,275.086877 C117.79092,279.709877 126.65092,278.165877 132.18192,276.930877 C147.71892,273.209877 147.19392,263.701877 128.91092,264.824877 Z M139.91892,270.890877 C134.29792,274.829877 109.87392,276.586877 120.71292,270.487877 C131.38892,264.478877 146.19292,266.488877 139.91892,270.890877 Z" id="Shape" fill="#000000" fill-rule="nonzero"></path>
            <path d="M200.64492,292.457877 C190.55892,301.580877 182.50492,296.877877 183.87192,291.227877 C184.39192,289.053877 187.54592,285.691877 186.00692,289.667877 C185.73292,290.146877 185.57692,290.682877 185.55192,291.233877 C185.52692,291.784877 185.63292,292.333877 185.86092,292.835877 C186.08992,293.337877 186.43392,293.777877 186.86692,294.119877 C187.29892,294.462877 187.80592,294.697877 188.34692,294.804877 C191.80192,295.618877 199.36292,290.462877 199.83892,288.031877 C200.15292,285.564877 200.17192,283.323877 192.92792,285.673877 C179.91492,289.893877 191.36792,283.489877 195.52792,282.319877 C199.31892,281.539877 202.45192,282.031877 203.00792,285.873877 C203.22092,287.082877 203.115,288.324877 202.70092,289.479877 C202.28592,290.633877 201.57792,291.660877 200.64492,292.457877 L200.64492,292.457877 Z" id="Path" fill="#000000" fill-rule="nonzero"></path>
            <path d="M58.2089202,344.233877 C53.9033202,340.791877 59.2801202,334.387877 65.0157202,332.013877 C69.5499202,330.141877 71.1439202,332.127877 70.8089202,332.330877 C69.0899202,332.452877 67.4349202,333.035877 66.0189202,334.018877 C59.6259202,338.001877 57.9593202,343.242877 62.3585202,341.740877 C65.0737202,340.609877 67.5019202,338.887877 69.4669202,336.698877 C70.0809202,336.171877 70.5319202,335.481877 70.7699202,334.708877 C71.0069202,333.935877 71.0209202,333.111877 70.8089202,332.330877 C71.0689202,331.628877 73.9049202,333.890877 71.2609202,338.050877 C68.6169202,342.210877 61.9971202,347.265877 58.2089202,344.233877 Z" id="Path" fill="#000000" fill-rule="nonzero"></path>
            <path d="M401.70292,346.446877 C401.18192,347.321877 400.35592,347.973877 399.38492,348.278877 C398.41292,348.583877 397.36292,348.519877 396.43492,348.099877 C390.28592,345.780877 386.79192,337.008877 388.49992,335.042877 C389.13692,334.168877 389.06092,335.427877 389.31592,336.191877 C390.51792,339.101877 392.43492,341.660877 394.89092,343.630877 C398.79092,346.864877 400.91992,345.234877 397.10092,339.803877 C395.81392,337.983877 392.55592,334.236877 390.21792,334.389877 C389.50592,334.434877 389.12092,334.878877 388.91792,334.761877 C388.75492,334.738877 388.65792,333.856877 389.82592,333.219877 C394.03292,330.944877 404.47892,340.728877 401.70292,346.446877 Z" id="Path" fill="#000000" fill-rule="nonzero"></path>
            <path d="M253.09192,327.125877 C250.55192,320.152877 251.11892,315.472877 251.47192,315.495877 C252.45992,315.378877 254.33192,336.599877 273.90792,344.355877 C282.47192,347.753877 291.62692,347.761877 300.79392,349.493877 C307.94692,350.845877 311.98692,353.068877 311.79692,353.447877 C311.59692,353.936877 307.44192,352.605877 300.44092,351.906877 C286.69392,350.538877 262.21292,352.142877 253.09192,327.125877 Z" id="Path" fill="#000000" fill-rule="nonzero"></path>
            <path d="M211.49492,271.090877 C196.90892,269.462877 189.18892,260.014877 190.14092,259.278877 C191.00892,258.498877 196.71892,266.233877 211.85892,267.941877 C223.38392,269.241877 235.77892,266.922877 235.94992,268.201877 C236.08492,269.239877 221.97992,272.265877 211.49492,271.090877 Z" id="Path" fill="#000000" fill-rule="nonzero"></path>
            <path d="M175.36992,331.693877 C165.44892,343.294877 145.18892,352.366877 144.47692,350.689877 C144.00892,349.584877 162.36192,340.749877 172.29692,329.091877 C178.65892,321.623877 179.30092,314.923877 175.99392,307.594877 C173.91392,302.963877 170.66392,298.803877 171.19192,298.356877 C171.88592,297.763877 190.98292,313.439877 175.36992,331.693877 Z" id="Path" fill="#000000" fill-rule="nonzero"></path>
            <path d="M327.50892,288.037877 C319.13192,283.853877 314.09092,276.982877 314.82592,276.337877 C315.56192,275.692877 320.80592,281.123877 328.92592,285.200877 C337.04592,289.277877 344.54692,290.057877 344.505096,290.996877 C344.45892,292.090877 335.90492,292.231877 327.50892,288.037877 Z" id="Path" fill="#000000" fill-rule="nonzero"></path>
            <path d="M451.63592,343.245877 C446.53492,328.204877 446.77892,333.123877 448.69292,328.974877 C457.65692,308.545877 429.25492,260.258877 400.59292,256.587877 C308.42292,146.519877 140.08592,157.007877 52.8191202,272.949877 C34.8453202,268.365877 13.9569202,304.149877 13.3303202,320.409877 C13.2824202,324.656877 14.5453202,328.814877 16.9469202,332.317877 C15.1373202,336.477877 13.4256202,340.680877 11.8119202,344.925877 C8.74912018,352.985877 7.97172018,360.067877 9.44852018,360.483877 C12.0121202,361.214877 17.5319202,345.031877 21.4605202,335.882877 C32.8095202,340.715877 47.4215202,322.060877 45.2427202,320.604877 C44.1845202,319.897877 30.2017202,334.478877 23.8109202,330.963877 C10.8109202,324.699877 28.0567202,293.088877 36.8863202,284.719877 C41.8263202,279.922877 51.2747202,275.603877 54.0463202,279.844877 C58.4195202,284.727877 53.8721202,304.180877 55.1903202,304.692877 C56.6151202,305.288877 60.6165202,295.231877 60.8401202,286.799877 C124.63592,202.166877 234.12192,174.346877 326.34392,216.942877 C344.67192,225.366877 349.02892,228.902877 349.28192,228.486877 C349.41392,228.281877 340.83192,222.982877 340.62092,222.860877 C250.56692,170.137877 130.95692,191.223877 60.4345202,281.329877 C60.0043202,278.784877 58.6770202,276.479877 56.6931202,274.829877 C142.56092,168.143877 300.11592,152.187877 394.87792,256.556877 C392.91092,256.755877 391.00492,257.346877 389.27092,258.295877 C387.53692,259.244877 386.01192,260.531877 384.78492,262.081877 C374.74292,275.239877 395.32192,301.614877 396.81992,300.540877 C398.32292,299.529877 381.57392,274.574877 389.09492,265.404877 C391.89592,261.834877 397.00192,261.504877 401.44292,262.351877 C407.16792,263.683877 412.50392,266.332877 417.02492,270.089877 C430.35992,280.699877 442.84792,299.162877 444.77192,318.808877 C445.69992,328.261877 440.06592,332.998877 432.96992,332.504877 C425.32092,331.932877 419.07292,325.172877 413.57692,319.965877 C404.52592,311.244877 394.23292,302.841877 410.69892,322.640877 C416.76992,329.738877 423.13492,336.995877 432.46092,337.925877 C436.11892,338.339877 439.81092,337.515877 442.94692,335.585877 C444.14592,338.705877 445.28392,341.850877 446.35992,345.018877 C453.51292,365.964877 456.47692,357.423877 451.63592,343.245877 Z" id="Path" fill="#000000" fill-rule="nonzero"></path>
            <path d="M110.57292,201.285877 C115.13292,196.818877 122.75892,186.857877 121.70092,180.607877 C120.53092,173.709877 99.4219202,153.065877 77.7899202,149.771877 C67.8709202,136.989877 42.7883202,121.293877 34.5489202,117.996877 C27.1857202,115.053877 17.0847202,113.914877 11.2243202,117.778877 C0.197720177,125.058877 4.33432018,150.034877 4.46432018,155.665877 C4.78672018,171.213877 17.0665202,192.039877 16.6297202,196.472877 C16.2969202,199.870877 12.0511202,199.675877 14.7473202,212.236877 C16.4403202,220.513877 18.6106202,228.686877 21.2473202,236.712877 C22.6981202,240.989877 24.7209202,245.604877 28.8419202,247.450877 C34.8479202,250.134877 46.8079202,246.806877 52.9543202,243.457877 C55.0707202,242.305877 56.1315202,242.141877 57.8943202,244.278877 C61.3601202,248.506877 65.5249202,256.857877 72.8209202,256.285877 C74.9009202,256.121877 75.4209202,255.003877 75.3199202,252.952877 C75.1289202,248.544877 73.9589202,244.233877 71.8929202,240.334877 C74.3939202,239.339877 76.6529202,237.820877 78.5199202,235.880877 C81.2219202,238.595877 90.0489202,246.800877 93.9409202,247.079877 C97.8329202,247.357877 100.51092,242.809877 100.11592,238.954877 C99.2789202,235.157877 97.7089202,231.561877 95.4929202,228.366877 C93.9329202,225.480877 94.5619202,225.634877 100.80192,217.270877 C105.39392,223.442877 107.31992,226.528877 110.16192,228.054877 C111.22992,228.700877 112.47692,228.987877 113.71892,228.873877 C114.96192,228.758877 116.13492,228.249877 117.06792,227.420877 C120.55992,223.637877 116.02792,216.284877 109.74092,206.009877 C108.54992,204.072877 108.58392,203.214877 110.57292,201.285877 Z" id="Path" fill="#FFC5F6" fill-rule="nonzero"></path>
            <path d="M33.1449202,176.954877 C32.6644202,181.205877 33.6340202,185.493877 35.8965202,189.124877 C38.1590202,192.755877 41.5816202,195.514877 45.6093202,196.956877 C48.3418202,197.948877 51.2914202,198.185877 54.1474202,197.643877 C57.0035202,197.100877 59.6605202,195.798877 61.8388202,193.872877 C64.0170202,191.947877 65.6359202,189.470877 66.5259202,186.703877 C67.4149202,183.935877 67.5419202,180.979877 66.8929202,178.145877 C63.2685202,161.058877 36.6679202,158.146877 33.1449202,176.954877 Z" id="Path" fill="#92FCFF" fill-rule="nonzero"></path>
            <path d="M62.0102202,190.105877 C59.5074202,193.179877 55.8966202,195.146877 51.9567202,195.581877 C48.0168202,196.016877 44.0636202,194.885877 40.9502202,192.432877 C34.0082202,187.417877 34.3228202,180.212877 33.2594202,180.272877 C32.5288202,180.306877 31.9594202,188.956877 38.8936202,194.977877 C41.5061202,197.340877 44.7425202,198.903877 48.2178202,199.479877 C51.6930202,200.056877 55.2607202,199.621877 58.4960202,198.228877 C61.7314202,196.834877 64.4982202,194.540877 66.4669202,191.619877 C68.4359202,188.698877 69.5239202,185.273877 69.6019202,181.751877 C69.7139202,170.283877 59.3842202,160.280877 47.8324202,162.124877 C39.4786202,163.341877 33.5324202,169.373877 32.8850202,174.773877 C32.4664202,177.602877 32.9526202,179.110877 33.2282202,179.104877 C33.5844202,179.117877 33.7482202,177.602877 34.6244202,175.238877 C37.0996202,168.119877 47.9104202,163.390877 55.9184202,167.269877 C64.2566202,171.206877 68.0399202,182.565877 62.0102202,190.105877 Z" id="Path" fill="#000000" fill-rule="nonzero"></path>
            <path d="M54.5793202,208.222877 C77.1989202,206.204877 87.2769202,179.830877 71.6379202,162.236877 C67.0569202,157.026877 60.6897202,153.720877 53.7924202,152.972877 C46.8951202,152.223877 39.9674202,154.085877 34.3747202,158.190877 C32.6588202,159.224877 31.2120202,160.650877 30.1523202,162.350877 C30.3291202,162.535877 31.7929202,161.011877 34.9805202,159.121877 C58.9343202,144.865877 82.4929202,168.525877 74.9189202,189.686877 C69.3319202,205.791877 47.7205202,211.615877 33.5478202,198.381877 C24.5908202,190.123877 25.0069202,179.539877 24.2347202,179.601877 C23.7147202,179.601877 23.5716202,191.283877 32.1465202,199.834877 C35.0611202,202.765877 38.5745202,205.032877 42.4462202,206.480877 C46.3179202,207.927877 50.4566202,208.522877 54.5793202,208.222877 L54.5793202,208.222877 Z" id="Path" fill="#000000" fill-rule="nonzero"></path>
            <path d="M117.70692,170.139877 C107.02092,159.123877 93.5799202,151.169877 78.7799202,147.103877 C66.0659202,133.785877 50.9725202,122.963877 34.2785202,115.196877 C-7.84147982,98.4038773 -6.37767982,153.877877 13.1769202,194.275877 C10.9520202,210.913877 13.6151202,227.838877 20.8417202,242.989877 C21.5017202,244.988877 22.6909202,246.771877 24.2832202,248.149877 C25.8754202,249.526877 27.8111202,250.447877 29.8845202,250.812877 C37.8899202,252.531877 48.9035202,249.039877 56.2641202,244.798877 C57.8241202,246.746877 62.8031202,252.687877 64.5113202,254.379877 C72.3499202,262.153877 79.3629202,255.123877 76.5159202,247.099877 C73.3959202,238.259877 70.9049202,243.615877 79.5939202,238.519877 C84.1149202,243.472877 89.4269202,250.552877 95.6959202,248.592877 C97.2769202,248.048877 98.6629202,247.050877 99.6799202,245.723877 C100.69792,244.396877 101.30092,242.798877 101.41592,241.130877 C101.86292,236.598877 99.3899202,231.770877 96.8479202,227.061877 C95.6279202,224.794877 96.2289202,227.451877 100.84892,220.041877 C106.07792,226.396877 108.44892,229.492877 112.19292,230.283877 C113.77892,230.554877 115.40892,230.190877 116.72892,229.270877 C118.04892,228.349877 118.95292,226.946877 119.24692,225.363877 C120.26792,221.141877 117.63192,216.235877 115.08692,211.843877 C109.08092,201.547877 108.82792,209.043877 118.69792,195.508877 C128.71292,181.179877 124.26692,176.915877 117.70692,170.139877 Z M6.57292018,154.118877 C10.5714202,152.579877 14.4221202,150.680877 18.0779202,148.445877 C21.8063202,146.084877 23.7979202,144.178877 23.5197202,143.765877 C23.1063202,143.120877 19.7939202,145.169877 6.07632018,150.408877 C4.34212018,135.401877 6.26612018,116.897877 21.3487202,117.630877 C28.5039202,117.924877 37.0319202,122.240877 43.1887202,125.893877 C26.1717202,141.324877 25.5711202,141.685877 25.8415202,142.111877 C26.1119202,142.538877 29.1383202,141.227877 33.4985202,138.245877 C38.0120202,135.050877 42.3337202,131.592877 46.4413202,127.889877 C79.9059202,149.066877 98.5169202,178.556877 101.39492,194.709877 C97.2349202,197.850877 87.2819202,206.051877 83.2989202,209.657877 C73.9989202,204.153877 65.9149202,212.233877 66.8119202,220.439877 C62.0959202,222.639877 51.6257202,228.086877 47.0523202,230.732877 C30.4149202,218.406877 11.8769202,189.138877 6.57292018,154.118877 Z M27.2117202,243.241877 C24.4505202,239.253877 17.2511202,221.625877 16.7805202,201.168877 C24.9757202,215.728877 39.5071202,234.632877 55.9053202,240.259877 C48.6929202,243.990877 31.4107202,249.304877 27.2117202,243.241877 Z M71.7629202,243.865877 C72.8159202,246.332877 74.4689202,249.770877 73.4609202,252.247877 C71.0839202,258.084877 65.0677202,249.632877 58.5235202,243.407877 C62.2623202,240.987877 59.6233202,241.723877 65.1509202,242.315877 C72.3009202,243.033877 70.2729202,240.347877 71.7629202,243.865877 L71.7629202,243.865877 Z M65.5769202,238.340877 C60.1474202,237.596877 54.9300202,235.737877 50.2529202,232.880877 C56.4040202,230.519877 62.2519202,227.434877 67.6729202,223.689877 C69.2769202,227.553877 72.8049202,231.083877 77.0799202,235.761877 C73.5989202,237.774877 69.5849202,238.674877 65.5769202,238.340877 L65.5769202,238.340877 Z M96.9619202,240.602877 C96.5539202,244.159877 93.7219202,245.875877 89.6299202,242.404877 C86.0609202,239.100877 82.7019202,235.577877 79.5709202,231.856877 C74.7029202,226.578877 66.2249202,219.667877 73.2499202,212.930877 C74.2519202,211.975877 75.5209202,211.347877 76.8879202,211.130877 C78.2549202,210.913877 79.6559202,211.118877 80.9039202,211.716877 C86.3589202,214.774877 97.5939202,235.007877 96.9619202,240.602877 L96.9619202,240.602877 Z M85.8909202,211.607877 C91.7389202,207.969877 97.1209202,203.632877 101.91792,198.690877 C102.29592,202.996877 101.81892,207.334877 100.51392,211.455877 C99.2089202,215.576877 97.1029202,219.398877 94.3149202,222.701877 C91.9279202,218.701877 89.1029202,214.980877 85.8909202,211.607877 L85.8909202,211.607877 Z M114.78192,218.983877 C117.21092,224.732877 114.86592,227.178877 112.79292,226.817877 C110.29692,226.437877 108.25892,223.562877 102.16692,217.717877 C103.37992,215.403877 104.32992,212.961877 105.00092,210.437877 C106.14292,209.397877 107.35692,208.255877 108.61492,207.023877 C110.97992,210.843877 113.04192,214.841877 114.78192,218.983877 L114.78192,218.983877 Z M106.15292,203.664877 C107.50792,186.530877 94.9419202,166.390877 84.2399202,153.343877 C102.99692,162.004877 119.07992,177.604877 119.14292,181.577877 C118.49492,188.781877 110.90592,198.079877 106.15292,203.664877 Z" id="Shape" fill="#000000" fill-rule="nonzero"></path>
            <path d="M301.97692,52.1526773 C309.58692,43.4270773 309.55092,44.9558773 316.06692,47.7040773 C339.83592,57.7270773 418.96192,98.2608773 419.22192,98.4038773 C433.17792,106.437877 439.40492,107.222877 433.34992,121.520877 C427.10992,136.267877 410.31392,168.975877 400.41592,181.205877 C395.80592,186.406877 391.74792,192.069877 388.30492,198.105877 C382.97992,208.196877 368.80492,215.281877 373.12892,217.130877 C390.93892,224.729877 394.98692,232.340877 399.73692,248.296877 C399.98392,249.125877 399.90392,249.474877 399.04292,249.970877 C395.95392,251.759877 388.64292,255.415877 385.62192,253.488877 C383.12092,251.889877 382.40792,246.239877 377.47592,239.383877 C374.60392,235.664877 370.78792,232.782877 366.42492,231.039877 C362.06192,229.295877 357.31092,228.753877 352.66692,229.469877 C344.08692,231.383877 348.11892,231.362877 264.26692,277.481877 C240.97892,290.288877 235.14692,287.668877 228.71192,300.681877 C223.60292,311.008877 223.44192,322.895877 216.00592,325.622877 C212.99192,326.727877 206.19292,326.197877 203.52592,323.451877 C198.97292,318.771877 203.30692,302.287877 205.19492,296.024877 C207.28992,289.074877 205.69892,291.027877 212.36592,285.010877 C217.53392,280.346877 210.94892,276.833877 131.78392,221.141877 C130.61692,220.521877 129.28592,220.277877 127.97492,220.445877 C118.52592,241.135877 131.55192,255.498877 112.25992,253.621877 C108.54792,253.262877 107.53392,252.495877 106.27992,249.721877 C97.1959202,229.480877 106.35792,204.140877 129.15992,192.001877 C140.59992,185.911877 114.51492,200.656877 226.43392,142.585877 C256.02192,127.250877 264.62592,94.9768773 301.97692,52.1526773 Z" id="Path" fill="#E2E2E2" fill-rule="nonzero"></path>
            <path d="M431.36892,103.101877 C413.03392,91.1238773 389.82892,81.9018773 369.89392,70.5500773 C354.51292,61.5228773 337.49592,54.7473773 321.31292,46.1491773 C305.17792,37.5691773 305.08392,42.0957773 260.81392,103.868877 C237.38792,136.662877 232.18792,135.393877 190.35392,157.457877 C129.58892,189.065877 117.89192,192.422877 113.69292,201.285877 C98.9219202,218.063877 97.7389202,244.370877 104.33292,253.688877 C106.86492,257.115877 110.50492,257.749877 114.75892,257.328877 C131.79192,255.303877 122.08792,247.175877 129.11592,223.375877 C147.99692,236.536877 124.68292,217.915877 210.65192,282.655877 C201.75492,289.347877 199.12392,302.006877 198.15692,313.075877 C197.78492,319.523877 198.15692,325.791877 206.32092,328.529877 C213.20492,330.931877 220.84692,328.035877 223.24892,322.445877 C225.31092,317.648877 227.18792,302.165877 238.09792,292.301877 C244.15592,290.686877 250.00192,288.365877 255.51792,285.385877 C259.81292,283.227877 320.58292,249.856877 350.59992,231.897877 C353.83592,231.312877 357.15592,231.387877 360.36192,232.117877 C363.56792,232.847877 366.59392,234.218877 369.25692,236.146877 C382.99092,246.208877 377.05692,263.831877 396.38592,255.646877 C401.22392,253.600877 403.49692,251.486877 402.10592,246.052877 C398.42892,232.308877 389.70392,220.312877 375.98392,215.533877 C398.77492,195.856877 434.96492,127.349877 438.92192,114.832877 C440.93392,108.361877 435.24492,105.787877 431.36892,103.101877 Z M120.10492,243.951877 C119.67792,250.321877 120.25792,250.469877 114.12492,251.049877 C112.11192,251.236877 110.60892,251.234877 109.44492,249.783877 C105.73692,244.544877 105.54492,224.794877 114.10392,210.143877 C117.37292,214.128877 121.15292,217.665877 125.34592,220.663877 C122.32092,228.082877 120.54992,235.952877 120.10492,243.951877 L120.10492,243.951877 Z M222.19092,306.944877 C219.14092,314.206877 218.30692,318.644877 217.67692,319.889877 C216.01892,323.763877 207.90092,324.309877 205.16392,320.409877 C203.16192,318.085877 203.63992,293.991877 214.42192,285.405877 C218.77892,288.606877 223.72792,290.910877 228.98192,292.184877 C233.98492,293.182877 228.49892,291.765877 222.19092,306.944877 Z M388.63292,231.643877 C392.07392,236.840877 394.58992,242.594877 396.06892,248.649877 C394.24292,249.637877 392.32792,250.449877 390.34892,251.072877 C382.92592,252.752877 387.52992,241.419877 372.49992,231.312877 C357.98892,222.023877 352.52892,232.563877 371.86792,218.791877 C378.63292,221.270877 384.48092,225.754877 388.63292,231.643877 L388.63292,231.643877 Z M433.84392,113.314877 C431.37092,121.761877 395.93292,194.210877 371.70392,213.344877 C361.30392,221.716877 264.33992,274.680877 252.95892,280.307877 C241.39492,286.014877 236.18892,287.686877 230.20392,286.445877 C221.62392,284.667877 223.97692,284.521877 152.42292,231.388877 C140.94892,223.089877 117.45792,209.881877 119.26692,204.504877 C121.43792,198.264877 139.58592,191.036877 145.48292,188.077877 C253.86192,131.657877 239.17392,146.331877 282.76292,83.2978773 C287.07392,77.0918773 307.06492,47.9535773 312.95392,49.0117773 C315.89192,49.5317773 416.60592,100.551877 423.38392,104.508877 C434.07492,110.951877 434.45792,111.276877 433.84392,113.314877 L433.84392,113.314877 Z" id="Shape" fill="#000000" fill-rule="nonzero"></path>
            <path d="M406.36192,83.0068773 C406.52492,71.7608773 404.38492,60.6002773 400.07392,50.2120773 C395.76292,39.8237773 389.37292,30.4273773 381.29492,22.6008773 C353.57392,-4.92532272 309.92492,12.7702773 309.92492,12.7702773 L305.79392,17.6842773 C305.79392,17.6842773 303.23792,12.7702773 292.42492,15.1310773 C281.61092,17.4918773 264.95792,42.7586773 262.97992,50.5326773 C260.22592,61.3460773 268.04492,71.5588773 268.04492,71.5588773 C268.04492,71.5588773 267.17392,71.2312773 262.89092,79.0808773 C258.60892,86.9298773 265.65792,109.682877 265.65792,109.682877 C265.65792,109.682877 253.17792,90.3228773 252.98792,76.0468773 C252.93292,71.7928773 252.61592,57.5864773 249.31192,54.9318773 C248.56492,53.6500773 244.43092,50.8498773 246.36792,41.7264773 C248.17292,32.8864773 256.42292,32.6134773 259.71692,28.0036773 C260.87892,26.0967773 261.30892,23.8325773 260.92592,21.6323773 C260.54392,19.4322773 259.37492,17.4460773 257.63692,16.0436773 C245.41692,6.75647728 234.95392,24.8836773 234.40292,24.0906773 C231.01292,18.9221773 226.87292,14.2867773 222.11792,10.3366773 C210.83392,1.84767728 201.04292,4.21367728 198.63792,8.61287728 C196.83292,11.8212773 199.35492,15.0946773 201.29492,18.2588773 C190.48392,16.8652773 178.84392,19.5952773 183.05292,27.8788773 C184.36892,30.4788773 188.06592,30.8506773 196.67492,34.8312773 C188.95292,36.6200773 180.81492,37.8186773 181.75792,43.6166773 C183.25892,51.6220773 194.32692,47.8260773 204.35992,53.9074773 C206.23892,54.7975773 207.77992,56.2715773 208.75192,58.1094773 C209.72492,59.9472773 210.07592,62.0503773 209.75492,64.1046773 C208.67092,71.2808773 206.22192,74.7178773 212.65192,82.7468773 C217.77292,88.9818773 221.32192,96.3558773 222.99992,104.248877 C224.07092,111.741877 235.04492,130.209877 235.04492,130.209877 L218.18192,142.611877 L200.76192,138.045877 C200.76192,138.045877 204.56292,117.802877 199.21692,107.659877 C193.87192,97.5168773 189.50892,91.7318773 175.43792,89.6598773 C161.36692,87.5878773 154.93192,88.5678773 155.04092,99.1498773 C155.14992,109.731877 157.00392,148.671877 157.22192,156.089877 C157.44092,163.507877 168.34792,166.016877 172.70992,166.229877 C191.66192,167.178877 167.39592,162.964877 166.84992,180.451877 C166.45192,193.209877 164.89992,218.299877 164.89992,218.299877 C157.42392,218.510877 150.19992,221.042877 144.22692,225.543877 C134.28192,233.065877 133.00792,245.943877 137.98692,251.299877 C142.96592,256.655877 184.78692,257.279877 184.78692,257.279877 C184.78692,257.279877 199.83092,258.553877 204.03992,252.432877 C208.24992,246.312877 208.11692,227.189877 208.11692,227.189877 C208.11692,227.189877 224.69192,244.273877 237.82492,247.079877 C250.95692,249.884877 274.28692,238.665877 285.12392,232.163877 C295.96092,225.660877 339.94492,187.541877 339.94492,187.541877 C339.94492,187.541877 367.35692,189.707877 380.35892,183.205877 C393.36192,176.702877 401.39592,163.445877 401.26892,152.353877 C401.19292,145.675877 400.50992,139.017877 399.22792,132.463877 C415.70892,113.478877 412.77392,87.6658773 406.36192,83.0068773 Z" id="Path" fill="#FFFFFF" fill-rule="nonzero"></path>
            <path d="M292.52892,31.7657773 C287.17292,35.9135773 282.11392,40.4312773 277.38892,45.2857773 C272.87892,50.6897773 270.07292,57.3098773 269.32492,64.3087773 C268.57792,71.3078773 269.92292,78.3708773 273.18992,84.6058773 C274.51892,87.0368773 275.11692,90.1618773 276.68392,92.4468773 C286.23892,106.364877 297.94992,119.512877 314.64392,122.086877 C327.43592,124.055877 342.75592,120.027877 350.90692,109.973877 C353.43592,106.853877 355.06692,103.811877 357.70792,100.782877 C367.76492,89.2338773 369.95892,71.5228773 354.73892,49.7265773 C349.96092,43.6121773 344.41392,38.1391773 338.23692,33.4427773 C325.49692,22.5721773 304.51992,21.7427773 301.02292,23.0739773 C296.73292,24.6755773 296.02292,28.8225773 292.52892,31.7657773 Z" id="Path" fill="#000000" fill-rule="nonzero"></path>
            <path d="M219.79892,220.005877 C235.34192,242.186877 256.45892,233.192877 256.92692,234.791877 C257.99792,236.629877 232.44492,246.556877 215.87292,222.740877 C200.16892,200.170877 214.00392,177.719877 215.73792,179.271877 C217.07892,180.048877 204.82292,198.649877 219.79892,220.005877 Z" id="Path" fill="#000000" fill-rule="nonzero"></path>
            <path d="M409.02992,84.9698773 C412.47492,78.2228773 405.77692,52.0588773 400.91992,43.4216773 C384.61292,14.4290773 359.13292,3.16587728 326.50592,6.02587728 C314.09792,8.10587728 309.57992,8.85987728 304.44192,14.1534773 C290.72392,7.71587728 278.24392,19.3274773 269.14992,31.5188773 C259.43292,44.5188773 254.46992,58.8734773 264.38892,71.7978773 C258.12792,77.8198773 258.38792,85.5958773 260.18692,94.2488773 C251.55492,69.0498773 257.73792,65.0120773 253.94692,56.2422773 C252.12692,51.9522773 245.69192,42.6442773 253.50792,36.8228773 C256.48792,34.5712773 261.78592,32.7564773 263.67092,27.5460773 C267.99292,14.9620773 249.56892,0.955877283 235.47192,20.8614773 C217.77892,-10.8585227 189.71192,-0.648322717 193.93692,13.8206773 C178.87792,11.9278773 171.29592,28.1648773 183.69492,34.3138773 C182.07292,34.8230773 180.61892,35.7647773 179.49192,37.0377773 C178.36392,38.3107773 177.60392,39.8669773 177.29392,41.5392773 C176.34792,56.3826773 196.14692,54.3052773 201.99392,57.8204773 C209.93992,62.4406773 200.86092,68.3972773 204.40392,76.4908773 C207.16592,83.1078773 212.32892,82.1768773 218.05692,97.3508773 C221.93592,107.680877 223.18192,115.508877 232.13092,129.104877 C226.59592,131.387877 221.50392,134.624877 217.08692,138.667877 C212.10492,137.049877 207.03192,135.725877 201.89492,134.699877 C206.65092,117.861877 202.27992,93.6198773 182.94392,87.7698773 C175.88192,85.7518773 159.24492,82.9888773 154.26092,88.5498773 C150.88092,92.3248773 151.42692,92.9698773 151.85092,119.791877 C152.14392,138.264877 152.94792,146.292877 153.72992,156.451877 C155.06892,164.706877 161.08592,167.935877 169.41592,168.931877 C154.70792,183.467877 162.16992,217.707877 159.59292,217.785877 C140.98292,218.471877 130.02592,232.729877 131.86692,246.275877 C133.33292,260.508877 156.70492,258.833877 169.56692,260.019877 C205.57692,262.962877 211.76992,257.019877 211.30492,234.378877 C211.25492,232.051877 210.39992,233.403877 218.02292,239.656877 C229.87692,249.276877 243.80992,253.813877 258.26592,248.641877 C278.54592,241.387877 310.32592,221.911877 341.43692,190.633877 C374.14492,193.586877 403.25192,183.792877 404.14392,151.893877 C404.11692,145.169877 403.43092,138.463877 402.09492,131.873877 C412.13692,118.327877 419.36992,97.5018773 409.02992,84.9698773 Z M303.49292,25.4374773 C310.51292,22.3486773 336.82992,30.1616773 354.27892,55.2932773 C361.03892,65.0822773 365.21992,74.2728773 361.08292,85.3618773 C355.45392,100.980877 342.47492,117.601877 326.01892,119.918877 C306.69092,123.038877 278.09392,103.366877 271.74192,71.5978773 C273.04192,67.3260773 271.95192,55.4934773 288.14792,39.4540773 C295.69292,32.0596773 299.18692,30.5542773 303.49292,25.4374773 Z M264.86692,55.1658773 C266.35692,43.5334773 285.29792,14.2288773 301.16092,17.9858773 C291.21292,30.5256773 270.27792,40.3302773 266.46392,66.2210773 C264.90892,62.7576773 264.35592,58.9277773 264.86692,55.1658773 L264.86692,55.1658773 Z M184.41292,23.4172773 C185.91792,20.8354773 190.91292,19.3118773 193.91592,19.7356773 C200.76392,20.9134773 198.61192,21.4594773 203.67592,24.2804773 C208.90492,27.1404773 213.33792,29.7404773 217.01192,32.1922773 C207.25092,40.3068773 214.73692,40.5642773 205.91492,37.0048773 C203.24992,35.9908773 205.70192,36.6746773 189.70392,29.8964773 C187.89192,29.3890773 186.22192,28.4678773 184.82592,27.2054773 C184.05892,25.7702773 183.67192,24.7458773 184.41292,23.4172773 Z M212.18892,77.3278773 C207.10592,71.7148773 211.56692,69.5464773 211.68392,62.9632773 C221.35892,64.8664773 229.37992,61.2056773 229.06292,60.2566773 C228.70692,59.1178773 220.87792,61.5982773 211.12292,59.0476773 C208.39492,50.5768773 195.66092,48.5176773 187.49892,47.1474773 C179.81392,43.6868773 183.61492,38.2008773 193.99892,38.2840773 C208.24692,43.6712773 209.03192,42.6182773 208.60892,43.7986773 C207.71192,46.3050773 207.63392,47.9872773 208.08892,48.1562773 C209.09692,48.5124773 211.76792,42.9328773 216.78292,37.4962773 C221.72292,31.9868773 227.01892,28.8018773 226.56692,27.8294773 C226.35892,27.3874773 224.68992,27.6214773 222.27892,28.7550773 C218.97992,30.2916773 223.99292,30.0550773 206.72092,19.2910773 C192.94092,10.2430773 202.78992,3.86267728 213.25192,7.46887728 C221.45492,10.2846773 227.91892,18.0586773 232.87192,25.1488773 C229.17192,32.4756773 228.97192,38.3412773 229.75192,38.3230773 C230.40392,38.3724773 231.13192,32.3898773 236.56392,24.8940773 C246.31592,11.6080773 255.60592,14.2340773 258.47692,20.0918773 C262.86792,28.8252773 251.13692,29.4518773 246.65992,36.3522773 C245.40292,38.2123773 244.57992,40.3312773 244.25192,42.5522773 C243.92492,44.7732773 244.09992,47.0394773 244.76692,49.1832773 C244.08892,50.7376773 243.03692,52.0999773 241.70392,53.1482773 C237.46292,56.3514773 229.34392,59.0034773 229.68192,60.0460773 C229.98092,60.9898773 242.24492,58.6550773 246.41492,53.4186773 C248.71592,58.2832773 250.02392,57.5526773 249.75892,65.8804773 C242.39292,75.7838773 222.92892,81.2988773 212.18892,77.3278773 Z M232.10992,81.6158773 C238.84792,80.0538773 244.97992,76.5528773 249.75092,71.5458773 C249.92592,77.2738773 250.91592,82.9478773 252.69192,88.3968773 C243.53592,92.7768773 233.89792,96.0658773 223.97492,98.1958773 C216.23192,73.1528773 210.43392,87.3568773 232.10992,81.6158773 Z M224.56992,100.145877 C234.72792,98.9258773 244.52992,95.6398773 253.36992,90.4898773 C254.09792,92.6708773 255.01892,95.1698773 255.94692,97.4188773 C246.62192,101.902877 236.80292,105.275877 226.69192,107.469877 C225.99492,105.150877 225.32092,102.698877 224.56192,100.145877 L224.56992,100.145877 Z M204.45392,243.504877 C202.89392,258.358877 181.96392,253.701877 156.09392,253.095877 C150.18892,252.892877 139.12092,252.014877 137.55092,246.312877 C167.16192,249.570877 194.78992,248.665877 194.77892,247.477877 C194.76892,246.288877 171.06492,246.312877 137.24592,242.433877 C137.34992,240.062877 137.82792,237.722877 138.66292,235.501877 C143.89192,222.953877 160.69792,218.624877 172.85292,223.047877 C179.75092,225.559877 182.40092,229.271877 182.87392,228.793877 C183.39392,228.356877 178.10492,220.598877 166.78192,218.372877 C166.84692,206.813877 165.31292,185.170877 172.22892,175.857877 C175.80392,171.044877 182.25492,168.218877 187.81092,170.540877 C203.68392,177.180877 205.64192,232.880877 204.44592,243.504877 L204.45392,243.504877 Z M314.34792,185.994877 C314.26492,187.240877 334.06392,189.835877 335.42892,189.998877 C313.83092,208.604877 282.58092,232.638877 256.10492,242.490877 C239.20492,248.787877 223.40992,239.404877 211.04492,226.289877 C207.40492,140.580877 176.93292,170.202877 162.68492,160.109877 C161.97092,159.636877 161.37592,159.006877 160.94392,158.267877 C160.51292,157.527877 160.25692,156.699877 160.19692,155.845877 C159.41692,145.749877 158.63692,138.108877 158.34492,119.661877 C157.93192,93.4928773 157.74492,93.8228773 159.27592,92.8038773 C160.91492,92.0548773 162.69592,91.6708773 164.49692,91.6777833 C166.04392,112.342877 165.30792,152.972877 167.08392,152.930877 C168.10292,152.907877 169.86592,112.966877 168.33492,91.7348773 C172.67292,92.0408773 176.97992,92.6988773 181.21192,93.7028773 C199.86992,98.9598773 202.69892,127.078877 194.79992,144.402877 C192.64992,148.911877 190.99392,151.245877 191.38092,151.576877 C191.99192,152.096877 196.67492,147.156877 199.53192,141.085877 C217.59692,144.537877 236.97192,151.916877 249.14492,166.000877 C259.85992,178.246877 276.96492,217.740877 280.10892,215.902877 C280.91692,215.439877 278.45992,209.283877 274.42192,199.327877 C273.55892,197.198877 273.18492,198.386877 281.77492,203.487877 C293.14192,210.151877 293.43092,208.513877 283.70992,200.713877 C268.36992,187.921877 270.44992,189.432877 266.76492,181.905877 C257.57192,163.224877 248.21992,150.829877 224.03192,141.168877 C228.01892,138.987877 231.67692,136.252877 234.89692,133.045877 C236.79792,135.612877 242.88692,142.866877 243.64592,142.179877 C244.57692,141.368877 235.38092,131.644877 228.16792,112.092877 C226.44692,107.222877 226.31692,111.437877 241.98992,106.112877 C263.87692,98.7028773 251.52192,93.7318773 264.44392,113.556877 C271.30192,124.000877 284.96292,140.372877 300.40892,147.876877 C307.87092,151.440877 312.44692,152.088877 312.52492,151.776877 C313.04492,150.216877 293.20992,145.835877 277.60992,122.716877 C271.81492,114.164877 267.38392,102.696877 268.73392,104.919877 C274.88592,115.808877 284.07592,124.670877 295.18092,130.425877 C311.37892,138.745877 333.34092,140.580877 348.50392,131.688877 C353.95492,128.328877 358.74992,124.006877 362.65592,118.933877 C360.73692,126.889877 360.51392,135.612877 365.53692,141.989877 C355.29492,147.681877 344.01192,151.252877 332.36092,152.488877 C321.89092,153.432877 315.36192,151.659877 315.13292,152.561877 C314.71692,153.476877 331.06292,160.982877 356.28292,152.067877 C356.10492,154.014877 355.53292,155.904877 354.60392,157.623877 C352.61492,161.391877 318.33092,161.003877 318.27092,162.870877 C318.20392,165.122877 343.21592,165.405877 349.53592,164.430877 C351.81492,169.108877 355.18892,173.166877 359.37292,176.260877 C363.55592,179.353877 368.42592,181.391877 373.56592,182.198877 C350.59192,190.035877 314.55892,182.594877 314.33992,185.994877 L314.34792,185.994877 Z M377.88892,180.485877 C372.55192,179.897877 367.41692,178.112877 362.86692,175.261877 C358.31692,172.410877 354.46992,168.568877 351.61392,164.022877 C353.68292,163.652877 355.62892,162.776877 357.27892,161.474877 C365.85192,169.432877 377.21692,173.689877 388.90792,173.322877 C385.64792,176.295877 381.92292,178.715877 377.88192,180.485877 L377.88892,180.485877 Z M390.88892,171.281877 C379.16792,171.124877 367.82292,167.124877 358.59492,159.896877 C359.41292,158.471877 359.97092,156.912877 360.24092,155.291877 C361.66292,147.624877 357.82492,152.668877 370.03692,145.837877 C378.90092,150.705877 389.69092,145.614877 397.17592,137.751877 C398.59592,149.948877 398.86592,162.191877 390.87592,171.281877 L390.88892,171.281877 Z M409.44292,100.785877 C408.09092,115.865877 391.96792,141.815877 376.96592,141.186877 C359.10192,140.440877 368.41492,99.6098773 392.18392,83.2068773 C395.59492,81.0098773 398.02392,80.9238773 398.00592,80.3888773 C398.18792,79.5958773 391.15692,77.7628773 379.22092,89.3948773 C385.05992,70.2146773 377.34092,57.7996773 376.83392,58.0362773 C374.84992,58.7850773 390.17192,76.9538773 362.58592,112.742877 C351.64792,126.863877 341.44792,133.724877 322.76692,132.996877 C284.69992,131.719877 263.14892,94.6958773 265.69692,80.3368773 C266.30592,78.6368773 267.36092,77.1328773 268.75192,75.9818773 C277.41492,115.306877 326.06592,149.100877 357.54692,104.141877 C371.96892,83.0038773 371.20492,70.2172773 358.56892,52.2720773 C343.58492,31.2302773 320.65792,20.3622773 307.31192,20.6846773 C308.68992,18.8717773 310.37692,17.3171773 312.29692,16.0930773 C317.36992,15.2095773 322.58892,15.7644773 327.36392,17.6946773 C358.18092,28.6510773 375.87992,57.6202773 376.50392,57.3238773 C379.14792,56.4918773 360.45392,24.5794773 328.88492,13.3214773 C326.13592,12.3646773 326.19092,12.6480773 327.34292,12.4530773 C363.70092,9.28367728 388.44492,26.0458773 398.91292,55.1086773 C401.01092,61.3850773 403.97492,75.9238773 403.49392,80.8118773 C403.49392,80.9998773 400.78192,80.0738773 400.64692,80.6928773 C400.37392,81.5688773 410.98492,84.6448773 409.42992,100.785877 L409.44292,100.785877 Z" id="Shape" fill="#000000" fill-rule="nonzero"></path>
            <path d="M149.34392,35.8867773 C145.94092,52.4929773 145.94592,52.1991773 146.00092,52.4617773 C146.52092,55.0617773 154.48992,45.1349773 163.51892,44.1417773 C159.69792,48.9135773 156.73292,54.3123773 154.75692,60.0979773 L166.97692,57.7215773 C170.44792,57.0455773 173.65192,58.0595773 172.53892,59.3569773 C166.67192,63.7836773 161.11192,68.6038773 155.89892,73.7838773 C134.27692,94.9588773 135.09892,98.7178773 131.65592,103.504877 C129.89792,105.535877 128.25492,107.662877 126.73492,109.877877 C124.50892,113.842877 123.85592,120.066877 118.69292,118.072877 C113.93992,116.236877 104.44192,114.741877 104.10192,108.293877 C103.59992,98.8868773 118.72692,60.3657773 149.34392,35.8867773 Z" id="Path" fill="#E2E2E2" fill-rule="nonzero"></path>
            <path d="M92.6899202,109.887877 C89.5989202,103.109877 104.55692,108.465877 105.89292,108.478877 C110.05292,108.501877 111.10592,103.473877 117.99092,100.330877 C121.67992,98.6458773 121.05392,112.427877 122.42892,114.403877 C122.90692,114.986877 123.50592,115.458877 124.18392,115.787877 C127.18992,117.535877 130.05292,119.521877 132.74292,121.725877 C134.38392,123.069877 133.88692,124.198877 132.04592,125.170877 C124.56392,129.119877 121.53192,129.509877 120.91092,130.217877 C120.56692,130.609877 120.73392,130.305877 117.29092,143.453877 C116.38892,146.903877 110.18292,138.893877 107.62192,135.986877 C107.17292,135.283877 106.50892,134.743877 105.72992,134.445877 C104.95092,134.147877 104.09692,134.106877 103.29292,134.330877 C101.59792,134.494877 91.8189202,135.456877 90.7379202,134.137877 C88.8659202,131.860877 97.2639202,123.015877 97.3989202,120.581877 C97.5389202,118.244877 92.6899202,112.105877 92.6899202,109.887877 Z" id="Path" fill="#FDFE1F" fill-rule="nonzero"></path>
            <path d="M173.45692,58.4392773 C173.95792,57.0066773 162.89292,54.8746773 155.39392,59.2556773 C155.57592,58.9956773 166.17392,42.6676773 165.47692,42.0956773 C164.90492,40.7696773 152.06892,46.7288773 146.59292,52.6412773 C146.96492,51.5466773 151.27292,35.4812773 149.99892,35.0808773 C149.64092,34.6050773 121.39892,51.4764773 105.85092,94.2538773 C104.36792,98.0608773 103.32092,102.023877 102.73092,106.065877 C96.6709202,104.700877 93.1869202,103.021877 91.0309202,106.390877 C89.3209202,109.063877 90.6859202,110.446877 95.5319202,120.950877 C89.6479202,130.859877 88.0129202,132.281877 89.6529202,135.172877 C91.5639202,138.529877 94.4319202,137.296877 105.32392,136.009877 L112.86392,144.589877 C113.40392,145.201877 114.10392,145.649877 114.88492,145.884877 C115.66592,146.119877 116.49692,146.132877 117.28492,145.920877 C118.07292,145.708877 118.78592,145.280877 119.34392,144.685877 C119.90192,144.090877 120.28192,143.351877 120.44292,142.551877 L122.66792,131.345877 L133.16392,126.826877 C133.91392,126.503877 134.55792,125.977877 135.02392,125.307877 C135.49092,124.636877 135.75992,123.849877 135.80192,123.034877 C135.84392,122.219877 135.65792,121.408877 135.26292,120.693877 C134.86892,119.979877 134.28192,119.389877 133.56992,118.990877 L125.91292,114.705877 C147.69592,76.5638773 174.73592,59.9498773 173.45692,58.4392773 Z M131.71092,123.423877 C118.79192,128.984877 119.45492,128.566877 119.35792,129.060877 C116.68792,142.660877 116.94292,142.372877 116.15992,142.372877 C115.25292,142.372877 107.42992,132.013877 106.48292,132.138877 C95.1469202,133.620877 93.7429202,133.677877 93.4679202,133.677877 C91.7879202,133.677877 93.2409202,132.083877 99.5439202,121.457877 C99.8039202,121.020877 100.01192,121.782877 94.1229202,109.011877 C94.0689202,108.898877 94.0489202,108.771877 94.0639202,108.647877 C94.0789202,108.522877 94.1279202,108.405877 94.2069202,108.307877 C94.2859202,108.209877 94.3899202,108.136877 94.5089202,108.095877 C94.6269202,108.054877 94.7549202,108.047877 94.8769202,108.075877 C104.61592,110.241877 107.46292,110.956877 107.72892,110.956877 C108.11092,110.956877 107.44792,111.452877 117.74392,101.934877 C117.83592,101.849877 117.94992,101.791877 118.07292,101.768877 C118.19592,101.744877 118.32292,101.755877 118.43992,101.800877 C118.55692,101.845877 118.65792,101.922877 118.73392,102.022877 C118.80992,102.122877 118.85592,102.241877 118.86692,102.365877 C120.18992,116.405877 119.97192,115.610877 120.41092,115.854877 C130.22892,121.356877 133.55692,122.630877 131.71092,123.423877 Z M123.52892,112.537877 L122.55592,102.030877 C122.45792,100.943877 121.95592,99.9338773 121.14792,99.1998773 C120.34092,98.4648773 119.28692,98.0608773 118.19592,98.0658773 C115.80692,98.0658773 115.42492,99.0488773 106.83892,106.988877 L105.75792,106.744877 C106.42392,102.860877 107.51492,99.0618773 109.01292,95.4168773 C119.77692,67.2246773 130.59292,54.9396773 148.62892,36.8020773 C145.17592,43.6348773 144.46892,54.0296773 145.73492,54.0998773 C146.18492,54.6796773 150.58992,51.9834773 155.98192,48.6970773 C164.87692,43.2214773 161.83192,44.1418773 158.02292,50.1400773 C154.71792,55.2958773 153.49892,60.2176773 154.17492,60.4412773 C154.45292,61.1458773 158.65692,59.9784773 163.84692,59.3596773 C167.56492,58.8630773 170.80192,58.9696773 172.40592,58.8084773 C160.79192,64.9184773 137.62892,86.0718773 123.52892,112.537877 Z" id="Shape" fill="#000000" fill-rule="nonzero"></path>
            <g id="face" transform="translate(270, 20)">
                <path d="M64.9795227,104.530014 C65.6590515,104.286883 74.5125328,100.332444 78.688385,97.0927734 C82.351885,94.2505914 85.2548326,91.0964789 85.4796117,90.6929169 C87.4792732,87.1027803 88.6595312,86.3507561 93.7508545,78.5913849 C94.9444921,76.7722355 98.3099159,71.6152242 99.2604065,68.9389496 C100.129984,66.4904999 101.831056,60.5074981 101.819332,58.8725586 C101.778065,53.690834 101.819332,54.7719784 101.819332,49 C101.819332,45.9407574 101.210777,38.7718087 99.2604065,36 C97.5671204,33.593552 95.8047378,29.8565748 93.7508545,27.4002533 C91.5789762,24.8028168 88.8104435,20.4271627 85.4796117,16.7259216 C83.8735236,14.9412266 81.1669713,12.384235 77.3599548,9.0549469 C74.4265564,6.55932411 72.3157674,4.83237505 71.0275879,3.87409973 C68.0177652,1.63509595 65.548017,0 62.5,0 C48.6133208,0 38.3746691,9.06457499 28,16.7259216 C12.5865899,28.1082103 0,41.8688799 0,62.5 C0,71.3872384 0.729792975,72.828305 1.99047852,75 C3.12585487,76.9558337 4.65275082,79.9472364 7.14173889,81.831908 C10.1188362,84.0861779 13.1878967,90.1158752 20.0589726,94.8541107 C23.9279453,97.5221213 33.8164619,105.594331 40.094162,105.84848 C41.4693917,105.904156 56,107.742828 64.9795227,104.530014 Z" id="Oval" fill="#FFFFFF"></path>
                <path d="M17.8642232,60.231063 C21.8800892,71.2725563 25.814764,78.3554922 29.6682476,81.4798706 C33.5217311,84.6042489 39.7761053,87.5339378 48.4313701,90.268937" id="Line" stroke="#FF263C" stroke-width="22" stroke-linecap="round" stroke-linejoin="bevel" transform="translate(33,1478, 75,25) rotate(-7) translate(-33,1478, -75,25)"></path>
                <path d="M17.8642232,60.231063 C21.8800892,71.2725563 25.814764,78.3554922 29.6682476,81.4798706 C33.5217311,84.6042489 39.7761053,87.5339378 48.4313701,90.268937" id="Line-Copy" stroke="#000000" stroke-width="9" stroke-linecap="round" stroke-linejoin="bevel" transform="translate(33,1478, 75,25) rotate(-7) translate(-33,1478, -75,25)"></path>
                <circle id="Oval" fill="#000000" cx="38" cy="32" r="10"></circle>
                <circle id="Oval-Copy" fill="#FE263B" cx="45" cy="57" r="13"></circle>
                <path d="M79.6425731,70.0979605 L79.6425731,65.012023 L84.6581981,65.012023 C87.4941356,65.012023 89.1347606,63.4885855 89.1347606,60.933898 C89.1347606,58.402648 87.4941356,56.8792105 84.6581981,56.8792105 L79.6425731,56.8792105 L79.6425731,51.8167105 C79.6425731,48.980773 78.0488231,47.340148 75.4238231,47.340148 C72.8222606,47.340148 71.2285106,48.980773 71.2285106,51.8167105 L71.2285106,56.8792105 L66.3769481,56.8792105 C63.5410106,56.8792105 61.9003856,58.4260855 61.9003856,60.9573355 C61.9003856,63.4885855 63.5410106,65.012023 66.3769481,65.012023 L71.2285106,65.012023 L71.2285106,70.0979605 C71.2285106,72.933898 72.8456981,74.574523 75.4472606,74.574523 C78.0488231,74.574523 79.6425731,72.933898 79.6425731,70.0979605 Z" id="Path" fill="#000000" fill-rule="nonzero" transform="translate(75,5176, 60,9573) rotate(33) translate(-75,5176, -60,9573)"></path>
            </g>
        </g>
    </g>
</svg>